<?xml version="1.0" standalone="no"?>
<!DOCTYPE svg PUBLIC "-//W3C//DTD SVG 1.1//EN" "http://www.w3.org/Graphics/SVG/1.1/DTD/svg11.dtd" >
<svg xmlns="http://www.w3.org/2000/svg">
<metadata>Generated by IcoMoon</metadata>
<defs>
<font id="bankai-icons" horiz-adv-x="1024">
<font-face units-per-em="1024" ascent="960" descent="-64" />
<missing-glyph horiz-adv-x="1024" />
<glyph unicode="&#x20;" horiz-adv-x="512" d="" />
<glyph unicode="&#xe900;" glyph-name="log-in" d="M640 768h170.667c11.776 0 22.4-4.736 30.165-12.501s12.501-18.389 12.501-30.165v-597.333c0-11.776-4.736-22.4-12.501-30.165s-18.389-12.501-30.165-12.501h-170.667c-23.552 0-42.667-19.115-42.667-42.667s19.115-42.667 42.667-42.667h170.667c35.328 0 67.413 14.379 90.496 37.504s37.504 55.168 37.504 90.496v597.333c0 35.328-14.379 67.413-37.504 90.496s-55.168 37.504-90.496 37.504h-170.667c-23.552 0-42.667-19.115-42.667-42.667s19.115-42.667 42.667-42.667zM537.003 469.334h-409.003c-23.552 0-42.667-19.115-42.667-42.667s19.115-42.667 42.667-42.667h409.003l-140.501-140.501c-16.683-16.683-16.683-43.691 0-60.331s43.691-16.683 60.331 0l213.333 213.333c4.096 4.096 7.168 8.789 9.259 13.824s3.243 10.539 3.243 16.341c0 5.547-1.067 11.136-3.243 16.341-2.091 5.035-5.163 9.728-9.259 13.824l-213.333 213.333c-16.683 16.683-43.691 16.683-60.331 0s-16.683-43.691 0-60.331z" />
<glyph unicode="&#xe901;" glyph-name="log-out" d="M384 85.334h-170.667c-11.776 0-22.4 4.736-30.165 12.501s-12.501 18.389-12.501 30.165v597.333c0 11.776 4.736 22.4 12.501 30.165s18.389 12.501 30.165 12.501h170.667c23.552 0 42.667 19.115 42.667 42.667s-19.115 42.667-42.667 42.667h-170.667c-35.328 0-67.413-14.379-90.496-37.504s-37.504-55.168-37.504-90.496v-597.333c0-35.328 14.379-67.413 37.504-90.496s55.168-37.504 90.496-37.504h170.667c23.552 0 42.667 19.115 42.667 42.667s-19.115 42.667-42.667 42.667zM793.003 469.334h-409.003c-23.552 0-42.667-19.115-42.667-42.667s19.115-42.667 42.667-42.667h409.003l-140.501-140.501c-16.683-16.683-16.683-43.691 0-60.331s43.691-16.683 60.331 0l213.333 213.333c3.925 3.925 7.083 8.619 9.259 13.824 6.4 15.445 3.328 33.92-9.259 46.507l-213.333 213.333c-16.683 16.683-43.691 16.683-60.331 0s-16.683-43.691 0-60.331z" />
<glyph unicode="&#xe902;" glyph-name="maximize-2" d="M793.003 768l-225.835-225.835c-16.683-16.683-16.683-43.691 0-60.331s43.691-16.683 60.331 0l225.835 225.835v-153.003c0-23.552 19.115-42.667 42.667-42.667s42.667 19.115 42.667 42.667v256c0 5.803-1.152 11.307-3.243 16.341s-5.163 9.728-9.216 13.781c-0.043 0.043-0.043 0.043-0.085 0.085-3.925 3.925-8.619 7.083-13.781 9.216-5.035 2.091-10.539 3.243-16.341 3.243h-256c-23.552 0-42.667-19.115-42.667-42.667s19.115-42.667 42.667-42.667zM230.997 85.334l225.835 225.835c16.683 16.683 16.683 43.691 0 60.331s-43.691 16.683-60.331 0l-225.835-225.835v153.003c0 23.552-19.115 42.667-42.667 42.667s-42.667-19.115-42.667-42.667v-256c0-23.552 19.115-42.667 42.667-42.667h256c23.552 0 42.667 19.115 42.667 42.667s-19.115 42.667-42.667 42.667z" />
<glyph unicode="&#xe903;" glyph-name="minimize-2" d="M700.331 554.667l225.835 225.835c16.683 16.683 16.683 43.691 0 60.331s-43.691 16.683-60.331 0l-225.835-225.835v153.003c0 23.552-19.115 42.667-42.667 42.667s-42.667-19.115-42.667-42.667v-256c0-5.803 1.152-11.307 3.243-16.341s5.163-9.728 9.216-13.781c0.043-0.043 0.043-0.043 0.085-0.085 3.925-3.925 8.619-7.083 13.781-9.216 5.035-2.091 10.539-3.243 16.341-3.243h256c23.552 0 42.667 19.115 42.667 42.667s-19.115 42.667-42.667 42.667zM158.165 12.502l225.835 225.835v-153.003c0-23.552 19.115-42.667 42.667-42.667s42.667 19.115 42.667 42.667v256c0 5.803-1.152 11.307-3.243 16.341s-5.163 9.728-9.216 13.781c-0.043 0.043-0.043 0.043-0.085 0.085-4.096 4.053-8.789 7.125-13.781 9.216-5.035 2.091-10.539 3.243-16.341 3.243h-256c-23.552 0-42.667-19.115-42.667-42.667s19.115-42.667 42.667-42.667h153.003l-225.835-225.835c-16.683-16.683-16.683-43.691 0-60.331s43.691-16.683 60.331 0z" />
<glyph unicode="&#xe904;" glyph-name="settings" d="M682.667 426.667c0 47.104-19.157 89.856-50.005 120.661s-73.557 50.005-120.661 50.005-89.856-19.157-120.661-50.005-50.005-73.557-50.005-120.661 19.157-89.856 50.005-120.661 73.557-50.005 120.661-50.005 89.856 19.157 120.661 50.005 50.005 73.557 50.005 120.661zM597.333 426.667c0-23.595-9.515-44.843-25.003-60.331s-36.736-25.003-60.331-25.003-44.843 9.515-60.331 25.003-25.003 36.736-25.003 60.331 9.515 44.843 25.003 60.331 36.736 25.003 60.331 25.003 44.843-9.515 60.331-25.003 25.003-36.736 25.003-60.331zM866.773 281.43c1.963 4.48 4.779 8.149 8.192 10.965 4.779 3.925 10.709 6.229 17.195 6.272h3.84c35.328 0 67.413 14.379 90.496 37.504s37.504 55.168 37.504 90.496-14.379 67.413-37.504 90.496-55.168 37.504-90.496 37.504h-6.784c-4.693 0.043-9.173 1.195-13.141 3.243-5.419 2.816-9.813 7.339-12.459 13.312-0.128 1.237-0.171 2.517-0.171 3.797-1.024 2.347-1.707 4.736-2.091 7.168 0.853 14.251 3.285 19.371 7.168 23.339l2.645 2.645c24.96 25.003 37.461 57.856 37.419 90.539s-12.544 65.536-37.589 90.539c-25.003 24.96-57.856 37.461-90.539 37.419s-65.536-12.544-90.453-37.504l-1.963-1.963c-3.541-3.413-7.808-5.803-12.288-7.083-5.973-1.664-12.416-1.365-18.688 1.408-4.309 1.877-7.979 4.693-10.795 8.107-3.925 4.779-6.229 10.709-6.272 17.195v3.84c0 35.328-14.379 67.413-37.504 90.496s-55.168 37.504-90.496 37.504-67.413-14.379-90.496-37.504-37.504-55.168-37.504-90.496v-6.784c-0.043-4.693-1.195-9.173-3.243-13.141-2.816-5.419-7.339-9.813-13.312-12.459-1.237-0.128-2.517-0.171-3.797-0.171-2.347-1.024-4.736-1.707-7.168-2.091-14.293 0.896-19.413 3.328-23.381 7.211l-2.645 2.645c-25.003 24.96-57.813 37.461-90.539 37.461s-65.493-12.544-90.539-37.632c-24.96-25.003-37.461-57.813-37.461-90.539s12.544-65.536 37.504-90.453l2.048-2.005c3.413-3.541 5.803-7.808 7.083-12.288 1.664-5.973 1.365-12.416-1.323-18.517-0.256-0.683-0.555-1.451-0.896-2.219-1.749-4.651-4.608-8.661-8.149-11.733-4.693-4.053-10.667-6.528-16.341-6.656h-3.84c-35.328 0-67.413-14.379-90.496-37.504s-37.504-55.211-37.504-90.539 14.379-67.413 37.504-90.496 55.168-37.504 90.496-37.504h6.784c4.693-0.043 9.173-1.195 13.141-3.243 5.461-2.859 9.941-7.424 12.629-13.696 1.024-2.347 1.707-4.736 2.091-7.168-0.853-14.251-3.285-19.371-7.168-23.339l-2.645-2.645c-24.96-25.003-37.461-57.856-37.419-90.539s12.544-65.536 37.589-90.539c25.003-24.96 57.856-37.461 90.539-37.419s65.536 12.544 90.453 37.504l2.005 2.048c3.541 3.413 7.808 5.803 12.288 7.083 5.973 1.664 12.416 1.365 18.517-1.323 0.683-0.256 1.451-0.555 2.219-0.896 4.651-1.749 8.661-4.608 11.733-8.149 4.053-4.693 6.528-10.667 6.656-16.341v-3.925c0-35.328 14.379-67.413 37.504-90.496s55.168-37.504 90.496-37.504 67.413 14.379 90.496 37.504 37.504 55.168 37.504 90.496v6.784c0.043 4.693 1.195 9.173 3.243 13.141 2.859 5.461 7.424 9.941 13.696 12.629 2.347 1.024 4.736 1.707 7.168 2.091 14.251-0.853 19.371-3.285 23.339-7.168l2.645-2.645c25.003-24.96 57.856-37.461 90.539-37.419s65.536 12.544 90.539 37.589c24.96 25.003 37.461 57.856 37.419 90.539s-12.544 65.536-37.504 90.453l-2.048 2.005c-3.413 3.541-5.803 7.808-7.083 12.288-1.664 5.973-1.365 12.416 1.323 18.517zM784.896 541.782c-0.512 8.576-1.621 12.672-3.243 16.299v-3.413c0-1.835 0.128-3.584 0.341-5.333 0.896-2.56 1.835-5.077 2.901-7.552 0.171-3.84 0.213-3.883 0.213-3.925 10.624-24.789 29.184-43.947 51.541-55.595 15.829-8.235 33.493-12.715 51.669-12.928h7.68c11.776 0 22.4-4.736 30.165-12.501s12.501-18.389 12.501-30.165-4.736-22.4-12.501-30.165-18.389-12.501-30.165-12.501h-3.84c-27.179-0.128-52.053-9.728-71.467-25.728-13.781-11.349-24.789-25.899-32-42.368-10.965-24.832-12.288-51.627-5.419-76.032 5.077-18.048 14.549-34.731 27.819-48.469l3.072-3.115c8.363-8.363 12.544-19.2 12.544-30.165s-4.139-21.845-12.459-30.165c-8.405-8.405-19.243-12.587-30.251-12.587s-21.845 4.139-30.165 12.459l-2.603 2.603c-19.755 19.328-44.373 29.952-69.632 32.085-18.645 1.579-37.632-1.451-55.168-9.045-24.661-10.581-43.819-29.141-55.467-51.456-8.235-15.829-12.715-33.493-12.928-51.669v-7.723c0-11.776-4.736-22.4-12.501-30.165s-18.347-12.459-30.123-12.459-22.4 4.736-30.165 12.501-12.501 18.389-12.501 30.165v3.84c-0.64 28.16-10.88 52.992-27.477 72.192-12.117 13.995-27.563 24.96-45.141 31.744-24.533 10.539-50.901 11.691-74.923 4.949-18.048-5.077-34.731-14.549-48.469-27.819l-3.115-3.072c-8.363-8.363-19.2-12.544-30.165-12.544s-21.845 4.139-30.165 12.459c-8.405 8.405-12.587 19.243-12.587 30.251s4.139 21.845 12.459 30.165l2.603 2.603c19.328 19.755 29.952 44.373 32.085 69.632 1.579 18.645-1.451 37.632-9.045 55.168-10.581 24.661-29.141 43.819-51.456 55.467-15.829 8.235-33.493 12.715-51.669 12.928l-7.68-0.043c-11.776 0-22.4 4.736-30.165 12.501s-12.501 18.389-12.501 30.165 4.736 22.4 12.501 30.165 18.389 12.501 30.165 12.501h3.84c28.16 0.64 52.992 10.88 72.192 27.477 13.995 12.117 24.96 27.563 31.744 45.141 10.539 24.533 11.691 50.901 4.949 74.923-5.077 18.048-14.549 34.731-27.819 48.469l-3.115 3.115c-8.363 8.363-12.544 19.2-12.544 30.165s4.139 21.845 12.459 30.165c8.405 8.405 19.243 12.587 30.251 12.587s21.845-4.139 30.165-12.459l2.603-2.603c19.755-19.328 44.373-29.952 69.632-32.085 15.787-1.365 31.787 0.597 46.976 5.845 4.096 0.512 7.936 1.536 11.349 3.072-1.323-0.043-2.603-0.128-3.797-0.171-8.576-0.512-12.672-1.621-16.299-3.243h3.413c1.835 0 3.584 0.128 5.333 0.341 2.56 0.896 5.077 1.835 7.552 2.901 3.84 0.171 3.883 0.213 3.925 0.213 24.789 10.624 43.947 29.184 55.595 51.541 8.235 15.787 12.715 33.493 12.928 51.627v7.723c0 11.776 4.736 22.4 12.501 30.165s18.389 12.501 30.165 12.501 22.4-4.736 30.165-12.501 12.501-18.389 12.501-30.165v-3.84c0.128-27.179 9.728-52.053 25.728-71.467 11.349-13.781 25.899-24.789 42.496-32.043 24.661-10.88 51.456-12.203 75.861-5.333 18.048 5.077 34.731 14.549 48.469 27.819l3.115 3.072c8.363 8.363 19.2 12.544 30.165 12.544s21.845-4.139 30.165-12.459c8.405-8.405 12.587-19.243 12.587-30.251s-4.139-21.845-12.459-30.165l-2.603-2.603c-19.328-19.755-29.952-44.373-32.085-69.632-1.365-15.787 0.597-31.787 5.845-46.976 0.512-4.053 1.579-7.893 3.072-11.349-0.043 1.365-0.085 2.645-0.171 3.797z" />
<glyph unicode="&#xe905;" glyph-name="user" d="M896 42.667v85.333c0 58.88-23.936 112.299-62.464 150.869s-91.989 62.464-150.869 62.464h-341.333c-58.88 0-112.299-23.936-150.869-62.464s-62.464-91.989-62.464-150.869v-85.333c0-23.552 19.115-42.667 42.667-42.667s42.667 19.115 42.667 42.667v85.333c0 35.371 14.293 67.285 37.504 90.496s55.125 37.504 90.496 37.504h341.333c35.371 0 67.285-14.293 90.496-37.504s37.504-55.125 37.504-90.496v-85.333c0-23.552 19.115-42.667 42.667-42.667s42.667 19.115 42.667 42.667zM725.333 640c0 58.88-23.936 112.299-62.464 150.869s-91.989 62.464-150.869 62.464-112.299-23.936-150.869-62.464-62.464-91.989-62.464-150.869 23.936-112.299 62.464-150.869 91.989-62.464 150.869-62.464 112.299 23.936 150.869 62.464 62.464 91.989 62.464 150.869zM640 640c0-35.371-14.293-67.285-37.504-90.496s-55.125-37.504-90.496-37.504-67.285 14.293-90.496 37.504-37.504 55.125-37.504 90.496 14.293 67.285 37.504 90.496 55.125 37.504 90.496 37.504 67.285-14.293 90.496-37.504 37.504-55.125 37.504-90.496z" />
<glyph unicode="&#xe906;" glyph-name="user-plus" d="M725.333 42.667v85.333c0 58.88-23.936 112.299-62.464 150.869s-91.989 62.464-150.869 62.464h-298.667c-58.88 0-112.299-23.936-150.869-62.464s-62.464-91.989-62.464-150.869v-85.333c0-23.552 19.115-42.667 42.667-42.667s42.667 19.115 42.667 42.667v85.333c0 35.371 14.293 67.285 37.504 90.496s55.125 37.504 90.496 37.504h298.667c35.371 0 67.285-14.293 90.496-37.504s37.504-55.125 37.504-90.496v-85.333c0-23.552 19.115-42.667 42.667-42.667s42.667 19.115 42.667 42.667zM576 640c0 58.88-23.936 112.299-62.464 150.869s-91.989 62.464-150.869 62.464-112.299-23.936-150.869-62.464-62.464-91.989-62.464-150.869 23.936-112.299 62.464-150.869 91.989-62.464 150.869-62.464 112.299 23.936 150.869 62.464 62.464 91.989 62.464 150.869zM490.667 640c0-35.371-14.293-67.285-37.504-90.496s-55.125-37.504-90.496-37.504-67.285 14.293-90.496 37.504-37.504 55.125-37.504 90.496 14.293 67.285 37.504 90.496 55.125 37.504 90.496 37.504 67.285-14.293 90.496-37.504 37.504-55.125 37.504-90.496zM981.333 512h-85.333v85.333c0 23.552-19.115 42.667-42.667 42.667s-42.667-19.115-42.667-42.667v-85.333h-85.333c-23.552 0-42.667-19.115-42.667-42.667s19.115-42.667 42.667-42.667h85.333v-85.333c0-23.552 19.115-42.667 42.667-42.667s42.667 19.115 42.667 42.667v85.333h85.333c23.552 0 42.667 19.115 42.667 42.667s-19.115 42.667-42.667 42.667z" />
<glyph unicode="&#xe907;" glyph-name="user-x" d="M725.333 42.667v85.333c0 58.88-23.936 112.299-62.464 150.869s-91.989 62.464-150.869 62.464h-298.667c-58.88 0-112.299-23.936-150.869-62.464s-62.464-91.989-62.464-150.869v-85.333c0-23.552 19.115-42.667 42.667-42.667s42.667 19.115 42.667 42.667v85.333c0 35.371 14.293 67.285 37.504 90.496s55.125 37.504 90.496 37.504h298.667c35.371 0 67.285-14.293 90.496-37.504s37.504-55.125 37.504-90.496v-85.333c0-23.552 19.115-42.667 42.667-42.667s42.667 19.115 42.667 42.667zM576 640c0 58.88-23.936 112.299-62.464 150.869s-91.989 62.464-150.869 62.464-112.299-23.936-150.869-62.464-62.464-91.989-62.464-150.869 23.936-112.299 62.464-150.869 91.989-62.464 150.869-62.464 112.299 23.936 150.869 62.464 62.464 91.989 62.464 150.869zM490.667 640c0-35.371-14.293-67.285-37.504-90.496s-55.125-37.504-90.496-37.504-67.285 14.293-90.496 37.504-37.504 55.125-37.504 90.496 14.293 67.285 37.504 90.496 55.125 37.504 90.496 37.504 67.285-14.293 90.496-37.504 37.504-55.125 37.504-90.496zM951.168 627.499l-76.501-76.501-76.501 76.501c-16.683 16.683-43.691 16.683-60.331 0s-16.683-43.691 0-60.331l76.501-76.501-76.501-76.501c-16.683-16.683-16.683-43.691 0-60.331s43.691-16.683 60.331 0l76.501 76.501 76.501-76.501c16.683-16.683 43.691-16.683 60.331 0s16.683 43.691 0 60.331l-76.501 76.501 76.501 76.501c16.683 16.683 16.683 43.691 0 60.331s-43.691 16.683-60.331 0z" />
<glyph unicode="&#xe908;" glyph-name="users" d="M768 42.667v85.333c0 58.88-23.936 112.299-62.464 150.869s-91.989 62.464-150.869 62.464h-341.333c-58.88 0-112.299-23.936-150.869-62.464s-62.464-91.989-62.464-150.869v-85.333c0-23.552 19.115-42.667 42.667-42.667s42.667 19.115 42.667 42.667v85.333c0 35.371 14.293 67.285 37.504 90.496s55.125 37.504 90.496 37.504h341.333c35.371 0 67.285-14.293 90.496-37.504s37.504-55.125 37.504-90.496v-85.333c0-23.552 19.115-42.667 42.667-42.667s42.667 19.115 42.667 42.667zM597.333 640c0 58.88-23.936 112.299-62.464 150.869s-91.989 62.464-150.869 62.464-112.299-23.936-150.869-62.464-62.464-91.989-62.464-150.869 23.936-112.299 62.464-150.869 91.989-62.464 150.869-62.464 112.299 23.936 150.869 62.464 62.464 91.989 62.464 150.869zM512 640c0-35.371-14.293-67.285-37.504-90.496s-55.125-37.504-90.496-37.504-67.285 14.293-90.496 37.504-37.504 55.125-37.504 90.496 14.293 67.285 37.504 90.496 55.125 37.504 90.496 37.504 67.285-14.293 90.496-37.504 37.504-55.125 37.504-90.496zM1024 42.667v85.333c-0.043 53.12-19.499 101.76-51.84 139.136-27.819 32.128-65.195 55.936-107.904 67.243-22.784 6.016-46.123-7.552-52.139-30.336s7.552-46.123 30.336-52.139c25.899-6.869 48.469-21.248 65.195-40.619 19.371-22.443 30.976-51.456 31.019-83.285v-85.333c0-23.552 19.115-42.667 42.667-42.667s42.667 19.115 42.667 42.667zM672.085 763.776c34.261-8.789 61.653-30.507 78.379-58.752s22.656-62.72 13.867-96.981c-7.509-29.355-24.533-53.589-47.147-70.485-13.397-10.027-28.8-17.451-45.355-21.803-22.784-5.973-36.437-29.312-30.421-52.096s29.312-36.437 52.096-30.421c27.179 7.125 52.565 19.413 74.752 36.011 37.717 28.16 66.219 68.821 78.72 117.675 14.592 57.045 4.693 114.731-23.125 161.621s-73.6 83.328-130.645 97.963c-22.827 5.845-46.080-7.936-51.925-30.763s7.936-46.080 30.763-51.925z" />
<glyph unicode="&#xe909;" glyph-name="upload-cloud" d="M469.333 323.67v-281.003c0-23.552 19.115-42.667 42.667-42.667s42.667 19.115 42.667 42.667v281.003l97.835-97.835c16.683-16.683 43.691-16.683 60.331 0s16.683 43.691 0 60.331l-170.667 170.667c-3.925 3.925-8.619 7.083-13.824 9.259s-10.795 3.243-16.341 3.243c-10.923 0-21.845-4.181-30.165-12.501l-170.667-170.667c-16.683-16.683-16.683-43.691 0-60.331s43.691-16.683 60.331 0zM890.411 116.566c62.037 33.835 104.576 89.685 123.051 152.491s13.013 132.779-20.821 194.816c-28.971 53.12-74.112 91.947-126.251 113.621-30.891 12.843-64.213 19.627-98.091 19.84h-22.485c-30.933 87.765-91.477 158.208-167.125 202.752-84.608 49.835-188.373 67.456-291.029 40.917s-184.875-92.245-234.752-176.853-67.456-188.373-40.917-291.029c15.872-61.312 45.781-115.584 84.267-158.421 15.744-17.536 42.752-18.944 60.245-3.2s18.944 42.752 3.2 60.245c-29.355 32.64-52.693 74.667-65.109 122.752-20.651 79.872-6.997 160.469 31.829 226.347s102.699 116.907 182.571 137.557 160.469 6.997 226.347-31.829 116.907-102.699 137.557-182.571c4.949-18.56 21.589-32 41.344-32h53.461c22.869-0.171 45.269-4.736 65.92-13.312 34.773-14.464 64.725-40.235 84.053-75.648 22.571-41.387 26.24-87.936 13.867-129.877s-40.661-79.104-82.048-101.632c-20.693-11.264-28.331-37.205-17.024-57.899s37.205-28.331 57.899-17.024z" />
<glyph unicode="&#xe90a;" glyph-name="filter" d="M174.080 768l276.565-345.643c11.643-14.463 18.688-33.055 18.688-53.293 0-0.014 0-0.028 0-0.042v0.002-283.691l85.333 64v219.733c0.001 20.237 7.046 38.828 18.817 53.456l-0.129-0.165 276.565 345.643h-675.797zM174.080 853.334h675.84c47.124-0.006 85.323-38.209 85.323-85.333 0-20.256-7.058-38.863-18.848-53.497l0.128 0.164-276.523-345.6v-219.733c0-27.821-13.314-52.533-33.919-68.111l-0.215-0.156-85.333-64c-14.084-10.655-31.893-17.067-51.2-17.067-47.128 0-85.333 38.205-85.333 85.333v0 283.733l-276.523 345.6c-11.662 14.47-18.72 33.077-18.72 53.333 0 47.125 38.199 85.327 85.322 85.333h0.001z" />
<glyph unicode="&#xe90b;" glyph-name="align-center" d="M341.333 640h341.333c23.564 0 42.667-19.103 42.667-42.667s-19.103-42.667-42.667-42.667v0h-341.333c-23.564 0-42.667 19.103-42.667 42.667s19.103 42.667 42.667 42.667v0zM341.333 298.667h341.333c23.564 0 42.667-19.103 42.667-42.667s-19.103-42.667-42.667-42.667v0h-341.333c-23.564 0-42.667 19.103-42.667 42.667s19.103 42.667 42.667 42.667v0zM256 469.334h512c23.564 0 42.667-19.103 42.667-42.667s-19.103-42.667-42.667-42.667v0h-512c-23.564 0-42.667 19.103-42.667 42.667s19.103 42.667 42.667 42.667v0z" />
<glyph unicode="&#xe90c;" glyph-name="align-justify" d="M256 640h512c23.564 0 42.667-19.103 42.667-42.667s-19.103-42.667-42.667-42.667v0h-512c-23.564 0-42.667 19.103-42.667 42.667s19.103 42.667 42.667 42.667v0zM256 298.667h512c23.564 0 42.667-19.103 42.667-42.667s-19.103-42.667-42.667-42.667v0h-512c-23.564 0-42.667 19.103-42.667 42.667s19.103 42.667 42.667 42.667v0zM256 469.334h512c23.564 0 42.667-19.103 42.667-42.667s-19.103-42.667-42.667-42.667v0h-512c-23.564 0-42.667 19.103-42.667 42.667s19.103 42.667 42.667 42.667v0z" />
<glyph unicode="&#xe90d;" glyph-name="align-left" d="M256 640h256c23.564 0 42.667-19.103 42.667-42.667s-19.103-42.667-42.667-42.667v0h-256c-23.564 0-42.667 19.103-42.667 42.667s19.103 42.667 42.667 42.667v0zM256 298.667h341.333c23.564 0 42.667-19.103 42.667-42.667s-19.103-42.667-42.667-42.667v0h-341.333c-23.564 0-42.667 19.103-42.667 42.667s19.103 42.667 42.667 42.667v0zM256 469.334h512c23.564 0 42.667-19.103 42.667-42.667s-19.103-42.667-42.667-42.667v0h-512c-23.564 0-42.667 19.103-42.667 42.667s19.103 42.667 42.667 42.667v0z" />
<glyph unicode="&#xe90e;" glyph-name="align-right" d="M512 640h256c23.564 0 42.667-19.103 42.667-42.667s-19.103-42.667-42.667-42.667v0h-256c-23.564 0-42.667 19.103-42.667 42.667s19.103 42.667 42.667 42.667v0zM426.667 298.667h341.333c23.564 0 42.667-19.103 42.667-42.667s-19.103-42.667-42.667-42.667v0h-341.333c-23.564 0-42.667 19.103-42.667 42.667s19.103 42.667 42.667 42.667v0zM256 469.334h512c23.564 0 42.667-19.103 42.667-42.667s-19.103-42.667-42.667-42.667v0h-512c-23.564 0-42.667 19.103-42.667 42.667s19.103 42.667 42.667 42.667v0z" />
<glyph unicode="&#xe90f;" glyph-name="android" d="M181.205 575.574h-2.176c-27.989 0-50.773-22.912-50.773-50.773v-221.141c0-27.989 22.784-50.773 50.773-50.773h2.219c27.947 0 50.773 22.827 50.773 50.773v221.141c-0.043 27.904-22.869 50.773-50.816 50.773zM256.299 218.326c0-25.685 20.992-46.592 46.677-46.592h49.92v-119.467c0-28.032 22.827-50.816 50.773-50.816h2.133c28.032 0 50.859 22.827 50.859 50.859v119.424h69.717v-119.467c0-28.032 22.955-50.816 50.859-50.816h2.133c28.032 0 50.816 22.827 50.816 50.859v119.424h49.92c25.643 0 46.635 20.907 46.635 46.592v349.099h-470.443v-349.099zM608.683 779.179l39.637 61.141c0.931 1.334 1.488 2.989 1.488 4.775 0 4.642-3.763 8.405-8.405 8.405-3.015 0-5.659-1.587-7.142-3.971l-0.021-0.036-41.088-63.275c-29.829 12.469-64.489 19.713-100.84 19.713-0.248 0-0.497 0-0.745-0.001h0.038c-36.437 0-70.741-7.083-101.632-19.712l-41.003 63.275c-1.517 2.347-4.121 3.879-7.082 3.879-1.733 0-3.343-0.524-4.681-1.423l0.030 0.019c-2.325-1.521-3.839-4.112-3.839-7.057 0-1.708 0.509-3.296 1.384-4.623l-0.020 0.031 39.68-61.141c-71.509-35.072-119.723-101.077-119.723-176.811 0-4.693 0.256-9.259 0.683-13.781h472.32c0.341 4.523 0.597 9.131 0.597 13.781 0 75.733-48.213 141.739-119.68 176.811zM382.080 669.654c-0.013 0-0.028 0-0.043 0-12.536 0-22.699 10.163-22.699 22.699 0 12.521 10.138 22.674 22.654 22.699h0.002c0.013 0 0.028 0 0.043 0 12.536 0 22.699-10.163 22.699-22.699 0-12.521-10.138-22.674-22.654-22.699h-0.002zM601.045 669.654c-0.019 0-0.042 0-0.064 0-12.536 0-22.699 10.163-22.699 22.699 0 12.514 10.126 22.662 22.631 22.699h0.003c0.019 0 0.042 0 0.064 0 12.536 0 22.699-10.163 22.699-22.699 0-12.514-10.126-22.662-22.631-22.699h-0.003zM804.053 575.574h-2.133c-27.947 0-50.816-22.912-50.816-50.773v-221.141c0-27.989 22.912-50.773 50.816-50.773h2.133c28.032 0 50.816 22.827 50.816 50.773v221.141c0 27.904-22.827 50.773-50.816 50.773z" />
<glyph unicode="&#xe910;" glyph-name="apple" d="M730.581 399.915c-1.067 108.075 88.149 159.915 92.117 162.475-50.133 73.387-128.213 83.413-156.032 84.565-66.432 6.741-129.664-39.125-163.413-39.125-33.621 0-85.675 38.144-140.8 37.12-72.363-1.067-139.136-42.069-176.427-106.923-75.264-130.56-19.285-324.053 54.059-429.952 35.84-51.84 78.592-110.080 134.699-107.947 54.016 2.133 74.453 34.944 139.776 34.944s83.712-34.987 140.885-33.92c58.155 1.109 94.976 52.864 130.56 104.832 41.173 60.16 58.112 118.4 59.136 121.387-1.28 0.555-113.408 43.52-114.517 172.587zM623.147 717.056c29.781 36.139 49.877 86.272 44.373 136.277-42.88-1.707-94.891-28.587-125.653-64.64-27.605-32-51.797-82.987-45.312-132.011 47.872-3.755 96.768 24.32 126.592 60.373z" />
<glyph unicode="&#xe911;" glyph-name="arrow-down" d="M554.667 266.966l168.533 168.533c7.769 8.036 18.647 13.026 30.69 13.026 23.564 0 42.667-19.103 42.667-42.667 0-12.043-4.989-22.92-13.014-30.678l-241.377-241.377c-7.706-7.749-18.376-12.545-30.165-12.545s-22.459 4.796-30.163 12.544l-241.367 241.367c-8.036 7.769-13.026 18.647-13.026 30.69 0 23.564 19.103 42.667 42.667 42.667 12.043 0 22.92-4.989 30.678-13.014l168.545-168.545v409.003c0 23.564 19.103 42.667 42.667 42.667s42.667-19.103 42.667-42.667v0-409.003z" />
<glyph unicode="&#xe912;" glyph-name="arrow-left" d="M358.997 398.635l168.533-168.533c7.15-7.611 11.543-17.885 11.543-29.185 0-23.564-19.103-42.667-42.667-42.667-11.311 0-21.594 4.401-29.229 11.585l0.022-0.020-241.365 241.323c-7.749 7.706-12.545 18.376-12.545 30.165s4.796 22.459 12.544 30.163l241.367 241.367c7.769 8.036 18.647 13.026 30.69 13.026 23.564 0 42.667-19.103 42.667-42.667 0-12.043-4.989-22.92-13.014-30.678l-168.545-168.545h409.003c23.564 0 42.667-19.103 42.667-42.667s-19.103-42.667-42.667-42.667v0h-409.003z" />
<glyph unicode="&#xe913;" glyph-name="arrow-right" d="M665.003 483.968l-168.533 168.533c-7.41 7.665-11.977 18.12-11.977 29.641 0 23.564 19.103 42.667 42.667 42.667 11.521 0 21.976-4.567 29.653-11.989l241.353-241.353c7.749-7.706 12.545-18.376 12.545-30.165s-4.796-22.459-12.544-30.163l-241.367-241.367c-7.769-8.036-18.647-13.026-30.69-13.026-23.564 0-42.667 19.103-42.667 42.667 0 12.043 4.989 22.92 13.014 30.678l168.545 168.545h-409.003c-23.564 0-42.667 19.103-42.667 42.667s19.103 42.667 42.667 42.667v0h409.003z" />
<glyph unicode="&#xe914;" glyph-name="arrow-up" d="M469.333 572.971l-168.533-168.533c-7.665-7.41-18.12-11.977-29.641-11.977-23.564 0-42.667 19.103-42.667 42.667 0 11.521 4.567 21.976 11.989 29.653l241.353 241.353c7.706 7.749 18.376 12.545 30.165 12.545s22.459-4.796 30.163-12.544l241.367-241.367c7.15-7.611 11.543-17.885 11.543-29.185 0-23.564-19.103-42.667-42.667-42.667-11.311 0-21.594 4.401-29.229 11.585l0.022-0.020-168.533 168.533v-409.003c0-23.564-19.103-42.667-42.667-42.667s-42.667 19.103-42.667 42.667v0 409.003z" />
<glyph unicode="&#xe915;" glyph-name="arrows-fullscreen" d="M896 853.334c23.564 0 42.667-19.103 42.667-42.667v0-256c0-23.564-19.103-42.667-42.667-42.667s-42.667 19.103-42.667 42.667v0 153.003l-281.003-281.003 281.003-281.003v153.003c0 23.564 19.103 42.667 42.667 42.667s42.667-19.103 42.667-42.667v0-256c0-23.564-19.103-42.667-42.667-42.667v0h-256c-23.564 0-42.667 19.103-42.667 42.667s19.103 42.667 42.667 42.667v0h153.003l-281.003 281.003-281.003-281.003h153.003c23.564 0 42.667-19.103 42.667-42.667s-19.103-42.667-42.667-42.667v0h-256c-23.564 0-42.667 19.103-42.667 42.667v0 256c0 23.564 19.103 42.667 42.667 42.667s42.667-19.103 42.667-42.667v0-153.003l281.003 281.003-281.003 281.003v-153.003c0-23.564-19.103-42.667-42.667-42.667s-42.667 19.103-42.667 42.667v0 256c0 23.564 19.103 42.667 42.667 42.667v0h256c23.564 0 42.667-19.103 42.667-42.667s-19.103-42.667-42.667-42.667v0h-153.003l281.003-281.003 281.003 281.003h-153.003c-23.564 0-42.667 19.103-42.667 42.667s19.103 42.667 42.667 42.667v0h256z" />
<glyph unicode="&#xe916;" glyph-name="attachment" d="M850.475 646.016c7.274 7.695 17.553 12.484 28.949 12.484s21.675-4.789 28.932-12.465l0.018-0.019c16-16.64 16-43.605 0-60.245l-491.947-512.384c-36.358-38.468-87.735-62.413-144.704-62.413s-108.346 23.944-144.615 62.318l-0.089 0.094c-79.915 83.2-79.915 218.155 0 301.397l434.048 452.096c21.816 23.081 52.644 37.448 86.827 37.448s65.010-14.367 86.774-37.392l0.053-0.057c47.957-49.92 47.957-130.901 0-180.864l-376.235-391.723c-7.273-7.681-17.542-12.461-28.928-12.461s-21.655 4.78-28.911 12.443l-0.017 0.018c-7.418 7.839-11.98 18.448-11.98 30.123s4.561 22.284 11.999 30.143l-0.019-0.020 376.235 391.808c7.431 7.841 12 18.459 12 30.144s-4.569 22.303-12.018 30.164l0.019-0.020c-7.274 7.695-17.553 12.484-28.949 12.484s-21.675-4.789-28.932-12.465l-0.018-0.019-434.133-452.181c-47.915-49.92-47.915-130.901 0-180.821 21.816-23.081 52.644-37.448 86.827-37.448s65.010 14.367 86.774 37.392l0.053 0.057 491.989 512.384z" />
<glyph unicode="&#xe917;" glyph-name="background-color" d="M577.835 341.334l21.589-59.136c7.253-19.883 31.317-30.805 53.76-24.32 22.4 6.4 34.688 27.776 27.435 47.659l-87.467 239.36c-8.405 23.125-28.8 41.259-54.827 48.725-44.8 12.885-92.971-8.917-107.52-48.683l-87.339-239.36c-7.253-19.925 5.035-41.259 27.435-47.744 22.4-6.4 46.507 4.48 53.76 24.363l21.547 59.136h131.627zM546.688 426.667h-69.333l34.645 94.891 34.688-94.891zM341.333 682.667h341.333c47.128 0 85.333-38.205 85.333-85.333v0-341.333c0-47.128-38.205-85.333-85.333-85.333v0h-341.333c-47.128 0-85.333 38.205-85.333 85.333v0 341.333c0 47.128 38.205 85.333 85.333 85.333v0z" />
<glyph unicode="&#xe918;" glyph-name="bar-chart" d="M256 768c23.564 0 42.667-19.103 42.667-42.667v0-597.333c0-23.564-19.103-42.667-42.667-42.667s-42.667 19.103-42.667 42.667v0 597.333c0 23.564 19.103 42.667 42.667 42.667v0zM768 597.334c23.564 0 42.667-19.103 42.667-42.667v0-426.667c0-23.564-19.103-42.667-42.667-42.667s-42.667 19.103-42.667 42.667v0 426.667c0 23.564 19.103 42.667 42.667 42.667v0zM512 426.667c23.564 0 42.667-19.103 42.667-42.667v0-256c0-23.564-19.103-42.667-42.667-42.667s-42.667 19.103-42.667 42.667v0 256c0 23.564 19.103 42.667 42.667 42.667v0z" />
<glyph unicode="&#xe919;" glyph-name="bell-off" d="M640 106.667c0-70.692-57.308-128-128-128s-128 57.308-128 128v0h-99.968l85.333 85.333h428.928c-16.644 54.769-46.92 101.234-86.927 137.051l-0.284 0.25-28.416 25.429v150.613l84.907 84.907c0.299-4.693 0.427-9.472 0.427-14.251v-183.125c78.703-70.461 128-172.372 128-285.797 0-0.145 0-0.289 0-0.434v0.022h-256zM140.587 204.587c20.285 75.227 60.68 139.237 115.051 187.969l0.362 0.319v183.125c0 0.009 0 0.020 0 0.031 0 141.385 114.615 256 256 256 70.7 0 134.706-28.66 181.034-74.995l0.001-0.001-60.373-60.373c-30.883 30.874-73.542 49.969-120.661 49.969-94.244 0-170.646-76.389-170.667-170.628v-170.669l-200.747-200.747zM512 64c23.564 0 42.667 19.103 42.667 42.667v0h-85.333c0-23.564 19.103-42.667 42.667-42.667v0zM899.925 844.502c7.718-7.721 12.492-18.386 12.492-30.165s-4.774-22.445-12.492-30.165l-724.053-724.053c-7.771-8.049-18.657-13.047-30.71-13.047-23.564 0-42.667 19.103-42.667 42.667 0 12.032 4.98 22.901 12.992 30.657l724.064 724.064c7.723 7.731 18.396 12.514 30.187 12.514s22.464-4.782 30.186-12.513v0z" />
<glyph unicode="&#xe91a;" glyph-name="bell" d="M711.083 350.635l-28.416 25.429v221.269c0 94.257-76.41 170.667-170.667 170.667s-170.667-76.41-170.667-170.667v0-221.269l-28.416-25.429c-40.291-36.068-70.566-82.532-86.656-135.19l-0.555-2.112h572.587c-16.644 54.769-46.92 101.234-86.927 137.051l-0.284 0.25zM640 128c0-70.692-57.308-128-128-128s-128 57.308-128 128v0h-256c0 0.122 0 0.267 0 0.411 0 113.425 49.297 215.336 127.635 285.476l0.365 0.321v183.125c0 141.385 114.615 256 256 256s256-114.615 256-256v0-183.125c78.703-70.461 128-172.372 128-285.797 0-0.145 0-0.289 0-0.434v0.022h-256zM512 85.334c23.564 0 42.667 19.103 42.667 42.667v0h-85.333c0-23.564 19.103-42.667 42.667-42.667v0z" />
<glyph unicode="&#xe91b;" glyph-name="bold" d="M448 407.254v-116.352h64c35.328 0 64 26.027 64 58.197 0 32.128-28.672 58.155-64 58.155h-64zM597.931 460.16c38.357-24.661 63.403-65.237 63.403-111.104 0-74.923-66.859-135.723-149.333-135.723h-149.333v387.84c0 21.504 19.115 38.827 42.667 38.827h85.333c70.699 0 128-52.096 128-116.352 0-23.467-7.637-45.227-20.736-63.531zM448 562.39v-77.568h42.667c23.552 0 42.667 17.365 42.667 38.784s-19.115 38.784-42.667 38.784h-42.667z" />
<glyph unicode="&#xe91c;" glyph-name="calendar" d="M853.333 512v85.333c0 23.564-19.103 42.667-42.667 42.667v0h-42.667v-42.667c0-23.564-19.103-42.667-42.667-42.667s-42.667 19.103-42.667 42.667v0 42.667h-341.333v-42.667c0-23.564-19.103-42.667-42.667-42.667s-42.667 19.103-42.667 42.667v0 42.667h-42.667c-23.564 0-42.667-19.103-42.667-42.667v0-85.333h682.667zM853.333 426.667h-682.667v-256c0-23.564 19.103-42.667 42.667-42.667v0h597.333c23.564 0 42.667 19.103 42.667 42.667v0 256zM768 725.334h42.667c70.692 0 128-57.308 128-128v0-426.667c0-70.692-57.308-128-128-128v0h-597.333c-70.692 0-128 57.308-128 128v0 426.667c0 70.692 57.308 128 128 128v0h42.667v42.667c0 23.564 19.103 42.667 42.667 42.667s42.667-19.103 42.667-42.667v0-42.667h341.333v42.667c0 23.564 19.103 42.667 42.667 42.667s42.667-19.103 42.667-42.667v0-42.667z" />
<glyph unicode="&#xe91d;" glyph-name="camera" d="M327.509 554.667h-71.509c-47.128 0-85.333-38.205-85.333-85.333v0-213.333c0-47.128 38.205-85.333 85.333-85.333v0h512c47.128 0 85.333 38.205 85.333 85.333v0 213.333c0 47.128-38.205 85.333-85.333 85.333v0h-71.509l-16.512 64.043c-9.857 37.070-43.111 63.941-82.643 63.957h-170.669c-0.010 0-0.021 0-0.033 0-39.532 0-72.785-26.881-82.478-63.362l-0.135-0.596-16.512-64.043zM261.376 640c18.944 73.6 85.76 128 165.291 128h170.667c79.101-0.011 145.635-53.807 165.021-126.808l0.269-1.192h5.376c94.257 0 170.667-76.41 170.667-170.667v0-213.333c0-94.257-76.41-170.667-170.667-170.667v0h-512c-94.257 0-170.667 76.41-170.667 170.667v0 213.333c0 94.257 76.41 170.667 170.667 170.667v0h5.376zM512 213.334c-94.257 0-170.667 76.41-170.667 170.667s76.41 170.667 170.667 170.667v0c94.257 0 170.667-76.41 170.667-170.667s-76.41-170.667-170.667-170.667v0zM512 298.667c47.128 0 85.333 38.205 85.333 85.333s-38.205 85.333-85.333 85.333v0c-47.128 0-85.333-38.205-85.333-85.333s38.205-85.333 85.333-85.333v0zM768 426.667c23.564 0 42.667 19.103 42.667 42.667s-19.103 42.667-42.667 42.667v0c-23.564 0-42.667-19.103-42.667-42.667s19.103-42.667 42.667-42.667v0z" />
<glyph unicode="&#xe91e;" glyph-name="check" d="M447.403 224.854c-0.026 0-0.056 0-0.086 0-11.746 0-22.381 4.761-30.079 12.459l-180.992 181.035c-8.049 7.771-13.047 18.657-13.047 30.71 0 23.564 19.103 42.667 42.667 42.667 12.032 0 22.901-4.98 30.657-12.992l150.838-150.838 271.573 271.488c7.724 7.729 18.397 12.51 30.187 12.51 23.569 0 42.675-19.106 42.675-42.675 0-11.779-4.772-22.444-12.489-30.166l-301.738-301.738c-7.698-7.698-18.332-12.459-30.079-12.459-0.030 0-0.061 0-0.091 0h0.005z" />
<glyph unicode="&#xe91f;" glyph-name="chevron-down" d="M515.029 370.603l211.2 211.2c7.769 8.036 18.647 13.026 30.69 13.026 23.564 0 42.667-19.103 42.667-42.667 0-12.043-4.989-22.92-13.014-30.678l-241.377-241.377c-7.721-7.718-18.386-12.492-30.165-12.492s-22.445 4.774-30.165 12.492l-241.365 241.365c-8.036 7.769-13.026 18.647-13.026 30.69 0 23.564 19.103 42.667 42.667 42.667 12.043 0 22.92-4.989 30.678-13.014l211.212-211.212z" />
<glyph unicode="&#xe920;" glyph-name="chevron-left" d="M458.965 426.667l211.2-211.2c8.036-7.769 13.026-18.647 13.026-30.69 0-23.564-19.103-42.667-42.667-42.667-12.043 0-22.92 4.989-30.678 13.014l-241.377 241.377c-7.718 7.721-12.492 18.386-12.492 30.165s4.774 22.445 12.492 30.165l241.365 241.365c7.665 7.41 18.12 11.977 29.641 11.977 23.564 0 42.667-19.103 42.667-42.667 0-11.521-4.567-21.976-11.989-29.653l-211.188-211.188z" />
<glyph unicode="&#xe921;" glyph-name="chevron-right" d="M568.064 423.638l-211.2 211.2c-7.41 7.665-11.977 18.12-11.977 29.641 0 23.564 19.103 42.667 42.667 42.667 11.521 0 21.976-4.567 29.653-11.989l241.353-241.353c7.718-7.721 12.492-18.386 12.492-30.165s-4.774-22.445-12.492-30.165l-241.365-241.365c-7.665-7.41-18.12-11.977-29.641-11.977-23.564 0-42.667 19.103-42.667 42.667 0 11.521 4.567 21.976 11.989 29.653l211.188 211.188z" />
<glyph unicode="&#xe922;" glyph-name="chevron-up" d="M515.029 498.006l-211.2-211.2c-7.665-7.41-18.12-11.977-29.641-11.977-23.564 0-42.667 19.103-42.667 42.667 0 11.521 4.567 21.976 11.989 29.653l241.353 241.353c7.721 7.718 18.386 12.492 30.165 12.492s22.445-4.774 30.165-12.492l241.365-241.365c7.41-7.665 11.977-18.12 11.977-29.641 0-23.564-19.103-42.667-42.667-42.667-11.521 0-21.976 4.567-29.653 11.989l-211.188 211.188z" />
<glyph unicode="&#xe923;" glyph-name="chevrons-down" d="M515.029 498.603l211.2 211.2c7.769 8.036 18.647 13.026 30.69 13.026 23.564 0 42.667-19.103 42.667-42.667 0-12.043-4.989-22.92-13.014-30.678l-241.377-241.377c-7.721-7.718-18.386-12.492-30.165-12.492s-22.445 4.774-30.165 12.492l-241.365 241.365c-8.036 7.769-13.026 18.647-13.026 30.69 0 23.564 19.103 42.667 42.667 42.667 12.043 0 22.92-4.989 30.678-13.014l211.212-211.212zM515.029 242.603l211.2 211.2c7.769 8.036 18.647 13.026 30.69 13.026 23.564 0 42.667-19.103 42.667-42.667 0-12.043-4.989-22.92-13.014-30.678l-241.377-241.377c-7.721-7.718-18.386-12.492-30.165-12.492s-22.445 4.774-30.165 12.492l-241.365 241.365c-8.036 7.769-13.026 18.647-13.026 30.69 0 23.564 19.103 42.667 42.667 42.667 12.043 0 22.92-4.989 30.678-13.014l211.212-211.212z" />
<glyph unicode="&#xe924;" glyph-name="chevrons-left" d="M568.661 423.638l211.2-211.2c8.036-7.769 13.026-18.647 13.026-30.69 0-23.564-19.103-42.667-42.667-42.667-12.043 0-22.92 4.989-30.678 13.014l-241.377 241.377c-7.718 7.721-12.492 18.386-12.492 30.165s4.774 22.445 12.492 30.165l241.365 241.365c7.665 7.41 18.12 11.977 29.641 11.977 23.564 0 42.667-19.103 42.667-42.667 0-11.521-4.567-21.976-11.989-29.653l-211.188-211.188zM312.661 423.638l211.2-211.2c8.036-7.769 13.026-18.647 13.026-30.69 0-23.564-19.103-42.667-42.667-42.667-12.043 0-22.92 4.989-30.678 13.014l-241.377 241.377c-7.718 7.721-12.492 18.386-12.492 30.165s4.774 22.445 12.492 30.165l241.365 241.365c7.769 8.036 18.647 13.026 30.69 13.026 23.564 0 42.667-19.103 42.667-42.667 0-12.043-4.989-22.92-13.014-30.678l-211.212-211.212z" />
<glyph unicode="&#xe925;" glyph-name="chevrons-right" d="M696.064 423.638l-211.2 211.2c-7.41 7.665-11.977 18.12-11.977 29.641 0 23.564 19.103 42.667 42.667 42.667 11.521 0 21.976-4.567 29.653-11.989l241.353-241.353c7.718-7.721 12.492-18.386 12.492-30.165s-4.774-22.445-12.492-30.165l-241.365-241.365c-7.665-7.41-18.12-11.977-29.641-11.977-23.564 0-42.667 19.103-42.667 42.667 0 11.521 4.567 21.976 11.989 29.653l211.188 211.188zM440.064 423.638l-211.2 211.2c-8.036 7.769-13.026 18.647-13.026 30.69 0 23.564 19.103 42.667 42.667 42.667 12.043 0 22.92-4.989 30.678-13.014l241.377-241.377c7.718-7.721 12.492-18.386 12.492-30.165s-4.774-22.445-12.492-30.165l-241.365-241.365c-7.665-7.41-18.12-11.977-29.641-11.977-23.564 0-42.667 19.103-42.667 42.667 0 11.521 4.567 21.976 11.989 29.653l211.188 211.188z" />
<glyph unicode="&#xe926;" glyph-name="chevrons-up" d="M515.029 626.006l-211.2-211.2c-7.665-7.41-18.12-11.977-29.641-11.977-23.564 0-42.667 19.103-42.667 42.667 0 11.521 4.567 21.976 11.989 29.653l241.353 241.353c7.721 7.718 18.386 12.492 30.165 12.492s22.445-4.774 30.165-12.492l241.365-241.365c7.41-7.665 11.977-18.12 11.977-29.641 0-23.564-19.103-42.667-42.667-42.667-11.521 0-21.976 4.567-29.653 11.989l-211.188 211.188zM515.029 370.006l-211.2-211.2c-7.769-8.036-18.647-13.026-30.69-13.026-23.564 0-42.667 19.103-42.667 42.667 0 12.043 4.989 22.92 13.014 30.678l241.377 241.377c7.721 7.718 18.386 12.492 30.165 12.492s22.445-4.774 30.165-12.492l241.365-241.365c7.41-7.665 11.977-18.12 11.977-29.641 0-23.564-19.103-42.667-42.667-42.667-11.521 0-21.976 4.567-29.653 11.989l-211.188 211.188z" />
<glyph unicode="&#xe927;" glyph-name="clear-format" d="M547.243 576l-101.376-311.851c-5.596-17.486-21.705-29.923-40.719-29.923-23.564 0-42.667 19.103-42.667 42.667 0 4.876 0.818 9.561 2.324 13.925l-0.090-0.3 92.8 285.483h-137.515c-23.564 0-42.667 19.103-42.667 42.667s19.103 42.667 42.667 42.667v0h341.333c23.564 0 42.667-19.103 42.667-42.667s-19.103-42.667-42.667-42.667v0h-114.091zM689.323 309.632l30.208-30.165c8.036-7.769 13.026-18.647 13.026-30.69 0-23.564-19.103-42.667-42.667-42.667-12.043 0-22.92 4.989-30.678 13.014l-30.177 30.177-30.165-30.165c-7.728-7.738-18.409-12.525-30.208-12.525-23.577 0-42.69 19.113-42.69 42.69 0 11.778 4.77 22.442 12.483 30.166v0l30.165 30.165-30.165 30.165c-7.731 7.731-12.513 18.411-12.513 30.208 0 23.594 19.127 42.721 42.721 42.721 11.797 0 22.477-4.782 30.208-12.513l30.165-30.165 30.165 30.165c7.722 7.716 18.386 12.489 30.165 12.489 23.569 0 42.675-19.106 42.675-42.675 0-11.79-4.781-22.463-12.51-30.186l-30.166-30.166z" />
<glyph unicode="&#xe928;" glyph-name="clock" d="M554.667 469.334h170.667c23.564 0 42.667-19.103 42.667-42.667s-19.103-42.667-42.667-42.667v0h-213.333c-23.564 0-42.667 19.103-42.667 42.667v0 256c0 23.564 19.103 42.667 42.667 42.667s42.667-19.103 42.667-42.667v0-213.333zM512-0c-235.648 0-426.667 191.019-426.667 426.667s191.019 426.667 426.667 426.667 426.667-191.019 426.667-426.667-191.019-426.667-426.667-426.667zM512 85.334c188.513 0 341.333 152.82 341.333 341.333s-152.82 341.333-341.333 341.333v0c-188.513 0-341.333-152.82-341.333-341.333s152.82-341.333 341.333-341.333v0z" />
<glyph unicode="&#xe929;" glyph-name="close-circle" d="M572.331 426.667l120.704-120.661c7.725-7.725 12.504-18.398 12.504-30.187 0-23.577-19.113-42.69-42.69-42.69-11.789 0-22.461 4.778-30.187 12.504l-120.661 120.704-120.661-120.704c-7.725-7.725-18.398-12.504-30.187-12.504-23.577 0-42.69 19.113-42.69 42.69 0 11.789 4.778 22.461 12.504 30.187v0l120.704 120.661-120.704 120.661c-7.725 7.725-12.504 18.398-12.504 30.187 0 23.577 19.113 42.69 42.69 42.69 11.789 0 22.461-4.778 30.187-12.504l120.661-120.704 120.661 120.704c7.725 7.725 18.398 12.504 30.187 12.504 23.577 0 42.69-19.113 42.69-42.69 0-11.789-4.778-22.461-12.504-30.187v0l-120.704-120.661zM512-0c-235.648 0-426.667 191.019-426.667 426.667s191.019 426.667 426.667 426.667 426.667-191.019 426.667-426.667-191.019-426.667-426.667-426.667zM512 85.334c188.513 0 341.333 152.82 341.333 341.333s-152.82 341.333-341.333 341.333v0c-188.513 0-341.333-152.82-341.333-341.333s152.82-341.333 341.333-341.333v0z" />
<glyph unicode="&#xe92a;" glyph-name="close" d="M568.064 430.934l150.827 150.869c8.036 7.769 13.026 18.647 13.026 30.69 0 23.564-19.103 42.667-42.667 42.667-12.043 0-22.92-4.989-30.678-13.014l-150.881-150.839-150.827 150.827c-7.769 8.036-18.647 13.026-30.69 13.026-23.564 0-42.667-19.103-42.667-42.667 0-12.043 4.989-22.92 13.014-30.678l150.839-150.839-150.827-150.869c-8.036-7.769-13.026-18.647-13.026-30.69 0-23.564 19.103-42.667 42.667-42.667 12.043 0 22.92 4.989 30.678 13.014l150.839 150.839 150.869-150.827c7.769-8.036 18.647-13.026 30.69-13.026 23.564 0 42.667 19.103 42.667 42.667 0 12.043-4.989 22.92-13.014 30.678l-150.839 150.881z" />
<glyph unicode="&#xe92b;" glyph-name="cloud" d="M298.667 128c-117.769 0.068-213.214 95.555-213.214 213.333 0 117.821 95.513 213.333 213.333 213.333 23.771 0 46.634-3.888 67.988-11.063l-1.505 0.439c46.848 107.441 152.135 181.182 274.645 181.182 164.928 0 298.641-133.645 298.752-298.547v-0.011c0-164.949-133.718-298.667-298.667-298.667v0h-341.333zM298.667 213.334h341.333c117.778 0.056 213.235 95.547 213.235 213.333 0 117.821-95.513 213.333-213.333 213.333-87.526 0-162.741-52.71-195.634-128.118l-0.535-1.375-30.72-71.936-74.325 24.405c-11.894 4.031-25.594 6.357-39.838 6.357-70.692 0-128-57.308-128-128 0-70.628 57.203-127.895 127.806-128h0.010z" />
<glyph unicode="&#xe92c;" glyph-name="color" d="M525.952 320.427h-155.947l-20.352-55.723c-8.149-22.357-35.243-34.645-60.459-27.392-25.173 7.253-39.040 31.317-30.848 53.675l98.304 269.312c16.384 44.715 70.485 69.291 120.917 54.784 29.312-8.448 52.267-28.843 61.739-54.784l98.347-269.312c8.149-22.357-5.675-46.421-30.891-53.675-25.173-7.253-52.267 5.035-60.459 27.392l-20.352 55.765zM494.848 405.675l-46.848 128.341-46.933-128.341h93.739zM682.667 448c-47.128 0-85.333 38.205-85.333 85.333s38.205 85.333 85.333 85.333v0c47.128 0 85.333-38.205 85.333-85.333s-38.205-85.333-85.333-85.333v0z" />
<glyph unicode="&#xe92d;" glyph-name="credit-card" d="M853.333 554.667v85.333h-682.667v-85.333h682.667zM853.333 426.667h-682.667v-213.333h682.667v213.333zM170.667 725.334h682.667c47.128 0 85.333-38.205 85.333-85.333v0-426.667c0-47.128-38.205-85.333-85.333-85.333v0h-682.667c-47.128 0-85.333 38.205-85.333 85.333v0 426.667c0 47.128 38.205 85.333 85.333 85.333v0zM256 341.334h42.667c23.564 0 42.667-19.103 42.667-42.667s-19.103-42.667-42.667-42.667v0h-42.667c-23.564 0-42.667 19.103-42.667 42.667s19.103 42.667 42.667 42.667v0zM469.333 341.334h213.333c23.564 0 42.667-19.103 42.667-42.667s-19.103-42.667-42.667-42.667v0h-213.333c-23.564 0-42.667 19.103-42.667 42.667s19.103 42.667 42.667 42.667v0z" />
<glyph unicode="&#xe92e;" glyph-name="crop" d="M725.333 128h-341.333c-94.257 0-170.667 76.41-170.667 170.667v0 341.333h-85.333c-23.564 0-42.667 19.103-42.667 42.667s19.103 42.667 42.667 42.667v0h85.333v85.333c0 23.564 19.103 42.667 42.667 42.667s42.667-19.103 42.667-42.667v0-85.333h341.333c94.257 0 170.667-76.41 170.667-170.667v0-341.333h85.333c23.564 0 42.667-19.103 42.667-42.667s-19.103-42.667-42.667-42.667v0h-85.333v-85.333c0-23.564-19.103-42.667-42.667-42.667s-42.667 19.103-42.667 42.667v0 85.333zM725.333 213.334v341.333c0 47.128-38.205 85.333-85.333 85.333v0h-341.333v-341.333c0-47.128 38.205-85.333 85.333-85.333v0h341.333z" />
<glyph unicode="&#xe92f;" glyph-name="dashboard" d="M120.832 128c-22.433 50.091-35.499 108.563-35.499 170.086 0 0.204 0 0.408 0 0.612v-0.032c0 235.648 191.019 426.667 426.667 426.667s426.667-191.019 426.667-426.667c0-0.172 0-0.376 0-0.58 0-61.523-13.066-119.995-36.575-172.792l1.076 2.705h-782.336zM842.581 213.334c6.816 25.484 10.731 54.741 10.731 84.914 0 188.513-152.82 341.333-341.333 341.333s-341.333-152.82-341.333-341.333c0-30.172 3.915-59.43 11.264-87.293l-0.533 2.379h661.205zM512 512c-23.564 0-42.667 19.103-42.667 42.667s19.103 42.667 42.667 42.667v0c23.564 0 42.667-19.103 42.667-42.667s-19.103-42.667-42.667-42.667v0zM298.667 341.334c-23.564 0-42.667 19.103-42.667 42.667s19.103 42.667 42.667 42.667v0c23.564 0 42.667-19.103 42.667-42.667s-19.103-42.667-42.667-42.667v0zM725.333 341.334c-23.564 0-42.667 19.103-42.667 42.667s19.103 42.667 42.667 42.667v0c23.564 0 42.667-19.103 42.667-42.667s-19.103-42.667-42.667-42.667v0zM512 469.334c23.564 0 42.667-19.103 42.667-42.667v0-128c0-23.564-19.103-42.667-42.667-42.667s-42.667 19.103-42.667 42.667v0 128c0 23.564 19.103 42.667 42.667 42.667v0z" />
<glyph unicode="&#xe930;" glyph-name="discord" d="M842.24 938.667c57.266 0 103.998-46.148 104.945-103.689l0.015-1.783v-918.528l-110.080 97.28-61.952 57.344-65.536 60.928 27.136-94.72h-580.608c-57.266 0-103.998 46.148-104.945 103.689l-0.015 1.783v692.224c0 57.772 46.148 104.51 103.192 105.457l1.768 0.015h686.080zM425.984 693.931l-5.12 6.148-2.915-0.035c-13.971-0.416-76.076-5.069-140.957-53.73l-2.48-4.715c-12.848-25.062-71.248-147.052-71.248-293.781l1.065-1.698c7.245-11.092 52.127-72.864 155.095-76.126l15.080 18.498c5.967 7.368 12.9 15.987 19.224 23.998-59.686 17.859-85.292 53.836-89.094 59.622l-0.506 0.794 2.106-1.404c2.31-1.5 6.47-4.1 12.23-7.3 0.512-0.512 1.024-1.024 2.048-1.536 1.536-1.024 3.072-1.536 4.608-2.56 12.8-7.168 25.6-12.8 37.376-17.408 20.992-8.192 46.080-16.384 75.264-22.016 37.303-6.963 80.887-9.578 128.405-1.273l4.203 0.761c24.064 4.096 48.64 11.264 74.24 22.016 17.92 6.656 37.888 16.384 58.88 30.208l-0.839-1.276c-4.901-7.164-31.699-42.668-91.833-59.652l8.468-10.612c12.931-16.057 25.324-30.86 25.324-30.86 113.152 3.584 156.672 77.824 156.672 77.824 0 164.864-73.728 298.496-73.728 298.496-63.406 47.555-124.161 53.079-139.93 53.694l-3.942 0.070-7.168-8.196c77.186-23.61 117.732-56.48 125.924-63.62l1.564-1.404c-53.248 29.184-105.472 43.52-154.112 49.152-36.864 4.096-72.192 3.072-103.424-1.024-3.072 0-5.632-0.512-8.704-1.024l-2.878-0.27c-19.422-1.975-61.301-9.125-113.346-31.986l-7.439-3.469c-9.301-4.402-16.078-7.86-19.716-9.76l-3.053-1.619c0 0 41.65 39.643 131.906 66.269l2.75 0.803zM406.528 509.099c29.184 0 52.736-25.6 52.224-56.832 0-31.232-23.040-56.832-52.224-56.832-28.672 0-52.224 25.6-52.224 56.832s23.040 56.832 52.224 56.832zM593.408 509.099c29.184 0 52.224-25.6 52.224-56.832s-23.040-56.832-52.224-56.832c-28.672 0-52.224 25.6-52.224 56.832s23.040 56.832 52.224 56.832z" />
<glyph unicode="&#xe931;" glyph-name="eye-close" d="M742.315 544.854l62.805 62.805c80.171-46.251 133.547-110.165 133.547-180.992 0-141.397-211.541-255.701-426.667-256-46.136 0.003-91.108 4.976-134.414 14.412l4.152-0.759 74.539 74.496c18.176-1.877 36.779-2.859 55.595-2.816h0.085c-17.707 0-34.773 2.688-50.816 7.68l84.523 84.565c20.053 8.619 36.139 24.704 44.8 44.757l84.48 84.523c4.919-15.207 7.755-32.703 7.755-50.861 0-93.938-75.894-170.15-169.711-170.664h-0.049c181.12 0.64 340.395 93.184 340.395 170.667 0 40.235-43.605 84.736-111.019 118.187zM345.429 389.334c-2.627 11.219-4.133 24.1-4.133 37.334 0 94.165 76.261 170.518 170.391 170.666h0.014c-179.968 0.64-341.035-92.928-341.035-170.667 0-38.229 38.571-80.085 99.285-112.811l-62.208-62.123c-74.027 45.739-122.411 107.307-122.411 174.933 0 141.397 212.651 256.725 426.667 256 38.997-0.128 77.952-4.011 115.584-11.179l-75.819-75.776c-12.373 0.939-24.917 1.493-37.547 1.621 12.032-0.171 23.765-1.579 35.115-4.096l-203.947-203.904zM899.925 823.168c7.718-7.721 12.492-18.386 12.492-30.165s-4.774-22.445-12.492-30.165l-724.053-724.053c-7.771-8.049-18.657-13.047-30.71-13.047-23.564 0-42.667 19.103-42.667 42.667 0 12.032 4.98 22.901 12.992 30.657l724.064 724.064c7.723 7.731 18.396 12.514 30.187 12.514s22.464-4.782 30.186-12.513v0z" />
<glyph unicode="&#xe932;" glyph-name="eye" d="M853.333 426.667c0 77.227-160.427 170.027-341.632 170.667-179.968 0.64-341.035-92.928-341.035-170.667 0-77.867 160.171-170.923 341.205-170.667 181.547 0.256 341.461 93.013 341.461 170.667zM512 170.667c-215.125-0.299-426.667 114.603-426.667 256s212.651 256.725 426.667 256c214.016-0.725 426.667-114.603 426.667-256s-211.541-255.701-426.667-256zM512 256c-94.257 0-170.667 76.41-170.667 170.667s76.41 170.667 170.667 170.667v0c94.257 0 170.667-76.41 170.667-170.667s-76.41-170.667-170.667-170.667v0zM512 341.334c47.128 0 85.333 38.205 85.333 85.333s-38.205 85.333-85.333 85.333v0c-47.128 0-85.333-38.205-85.333-85.333s38.205-85.333 85.333-85.333v0z" />
<glyph unicode="&#xe933;" glyph-name="facebook" d="M385.963 688.427v-117.248h-85.931v-143.36h85.931v-426.069h176.384v426.027h118.4s11.093 68.736 16.469 143.915h-134.144v98.048c0 14.635 19.2 34.347 38.229 34.347h96.171v149.248h-130.731c-185.173 0-180.779-143.488-180.779-164.907z" />
<glyph unicode="&#xe934;" glyph-name="flag" d="M256 810.667h512c47.128 0 85.333-38.205 85.333-85.333v0-298.667c0-47.128-38.205-85.333-85.333-85.333v0h-512v-298.667c0-23.564-19.103-42.667-42.667-42.667s-42.667 19.103-42.667 42.667v0 768c0 23.564 19.103 42.667 42.667 42.667s42.667-19.103 42.667-42.667v0zM256 426.667h512v298.667h-512v-298.667z" />
<glyph unicode="&#xe935;" glyph-name="folder-open" d="M853.333 554.667c0 23.564-19.103 42.667-42.667 42.667v0h-323.627l-20.096 56.917c-6.056 16.7-21.783 28.416-40.247 28.416-0.011 0-0.022 0-0.032 0h-213.332c-23.564 0-42.667-19.103-42.667-42.667v0-85.333h682.667zM853.333 469.334h-682.667v-256c0-23.564 19.103-42.667 42.667-42.667v0h597.333c23.564 0 42.667 19.103 42.667 42.667v0 256zM547.413 682.667h263.253c70.692 0 128-57.308 128-128v0-341.333c0-70.692-57.308-128-128-128v0h-597.333c-70.692 0-128 57.308-128 128v0 426.667c0 70.692 57.308 128 128 128v0h213.333c55.723 0 103.125-35.627 120.747-85.333z" />
<glyph unicode="&#xe936;" glyph-name="folder-zip" d="M547.413 682.667h263.253c70.692 0 128-57.308 128-128v0-341.333c0-70.692-57.308-128-128-128v0h-597.333c-70.692 0-128 57.308-128 128v0 426.667c0 70.692 57.308 128 128 128v0h213.333c55.723 0 103.125-35.627 120.747-85.333zM810.667 597.334h-323.627l-20.096 56.917c-6.056 16.7-21.783 28.416-40.247 28.416-0.011 0-0.022 0-0.032 0h-213.332c-23.564 0-42.667-19.103-42.667-42.667v0-426.667c0-23.564 19.103-42.667 42.667-42.667v0h597.333c23.564 0 42.667 19.103 42.667 42.667v0 341.333c0 23.564-19.103 42.667-42.667 42.667v0zM682.667 512h85.333v-85.333h-85.333v85.333zM597.333 597.334h85.333v-85.333h-85.333v85.333zM597.333 426.667h85.333v-85.333h-85.333v85.333zM682.667 341.334h85.333v-85.333h-85.333v85.333zM597.333 256h85.333v-85.333h-85.333v85.333z" />
<glyph unicode="&#xe937;" glyph-name="folder" d="M810.667 597.334h-323.627l-20.096 56.917c-6.056 16.7-21.783 28.416-40.247 28.416-0.011 0-0.022 0-0.032 0h-213.332c-23.564 0-42.667-19.103-42.667-42.667v0-426.667c0-23.564 19.103-42.667 42.667-42.667v0h597.333c23.564 0 42.667 19.103 42.667 42.667v0 341.333c0 23.564-19.103 42.667-42.667 42.667v0zM547.413 682.667h263.253c70.692 0 128-57.308 128-128v0-341.333c0-70.692-57.308-128-128-128v0h-597.333c-70.692 0-128 57.308-128 128v0 426.667c0 70.692 57.308 128 128 128v0h213.333c55.723 0 103.125-35.627 120.747-85.333z" />
<glyph unicode="&#xe938;" glyph-name="gamepad-retro" d="M298.667 469.334h42.667c23.564 0 42.667-19.103 42.667-42.667s-19.103-42.667-42.667-42.667v0h-42.667v-42.667c0-23.564-19.103-42.667-42.667-42.667s-42.667 19.103-42.667 42.667v0 42.667h-42.667c-23.564 0-42.667 19.103-42.667 42.667s19.103 42.667 42.667 42.667v0h42.667v42.667c0 23.564 19.103 42.667 42.667 42.667s42.667-19.103 42.667-42.667v0-42.667zM256 682.667h512c0.002 0 0.004 0 0.006 0 141.385 0 256-114.615 256-256s-114.615-256-256-256c-75.703 0-143.732 32.86-190.6 85.094l-0.211 0.239h-130.389c-47.079-52.474-115.108-85.333-190.811-85.333-141.385 0-256 114.615-256 256s114.615 256 256 256c0.002 0 0.004 0 0.006 0v0zM256 597.334c0 0-0.001 0-0.001 0-94.257 0-170.667-76.41-170.667-170.667s76.41-170.667 170.667-170.667c50.482 0 95.845 21.918 127.092 56.757l0.141 0.16 25.429 28.416h206.677l25.429-28.416c31.388-34.999 76.751-56.917 127.233-56.917 94.257 0 170.667 76.41 170.667 170.667s-76.41 170.667-170.667 170.667c0 0-0.001 0-0.001 0h-512zM768 469.334c-23.564 0-42.667 19.103-42.667 42.667s19.103 42.667 42.667 42.667v0c23.564 0 42.667-19.103 42.667-42.667s-19.103-42.667-42.667-42.667v0zM682.667 384c-23.564 0-42.667 19.103-42.667 42.667s19.103 42.667 42.667 42.667v0c23.564 0 42.667-19.103 42.667-42.667s-19.103-42.667-42.667-42.667v0zM853.333 384c-23.564 0-42.667 19.103-42.667 42.667s19.103 42.667 42.667 42.667v0c23.564 0 42.667-19.103 42.667-42.667s-19.103-42.667-42.667-42.667v0zM768 298.667c-23.564 0-42.667 19.103-42.667 42.667s19.103 42.667 42.667 42.667v0c23.564 0 42.667-19.103 42.667-42.667s-19.103-42.667-42.667-42.667v0z" />
<glyph unicode="&#xe939;" glyph-name="header" d="M426.667 469.334h170.667v128c0 23.564 19.103 42.667 42.667 42.667s42.667-19.103 42.667-42.667v0-341.333c0-23.564-19.103-42.667-42.667-42.667s-42.667 19.103-42.667 42.667v0 128h-170.667v-128c0-23.564-19.103-42.667-42.667-42.667s-42.667 19.103-42.667 42.667v0 341.333c0 23.564 19.103 42.667 42.667 42.667s42.667-19.103 42.667-42.667v0-128z" />
<glyph unicode="&#xe93a;" glyph-name="help" d="M512-0c-235.648 0-426.667 191.019-426.667 426.667s191.019 426.667 426.667 426.667 426.667-191.019 426.667-426.667-191.019-426.667-426.667-426.667zM512 85.334c188.513 0 341.333 152.82 341.333 341.333s-152.82 341.333-341.333 341.333v0c-188.513 0-341.333-152.82-341.333-341.333s152.82-341.333 341.333-341.333v0zM512 213.334c-23.564 0-42.667 19.103-42.667 42.667s19.103 42.667 42.667 42.667v0c23.564 0 42.667-19.103 42.667-42.667s-19.103-42.667-42.667-42.667v0zM566.443 350.635c-7.168-5.645-16.327-9.054-26.283-9.054-23.569 0-42.675 19.106-42.675 42.675 0 13.613 6.374 25.738 16.301 33.552l0.091 0.069 16.811 13.141c15.127 11.82 24.761 30.065 24.761 50.56 0 35.346-28.654 64-64 64-14.997 0-28.79-5.158-39.7-13.798l0.133 0.102-16.811-13.141c-7.326-6.1-16.836-9.802-27.21-9.802-23.564 0-42.667 19.103-42.667 42.667 0 14.055 6.796 26.523 17.281 34.297l0.115 0.082 16.768 13.141c25.079 19.741 57.121 31.662 91.947 31.662 82.477 0 149.337-66.86 149.337-149.337 0-47.651-22.317-90.089-57.070-117.432l-0.32-0.243-16.811-13.141z" />
<glyph unicode="&#xe93b;" glyph-name="home" d="M853.333 85.334v463.701l-341.333 204.8-341.333-204.8v-463.701h170.667v117.333c0 94.257 76.41 170.667 170.667 170.667s170.667-76.41 170.667-170.667v0-117.333h170.667zM597.333-0v202.667c0 47.128-38.205 85.333-85.333 85.333s-85.333-38.205-85.333-85.333v0-202.667h-256c-47.128 0-85.333 38.205-85.333 85.333v0 463.701c0 0 0 0.001 0 0.001 0 30.914 16.439 57.989 41.052 72.959l0.378 0.213 341.333 204.8c12.532 7.639 27.69 12.161 43.904 12.161s31.372-4.522 44.282-12.374l-0.378 0.213 341.333-204.8c24.991-15.184 41.429-42.258 41.429-73.173 0 0 0-0.001 0-0.001v0-463.701c0-47.128-38.205-85.333-85.333-85.333v0h-256z" />
<glyph unicode="&#xe93c;" glyph-name="id-card" d="M170.667 725.334h682.667c47.128 0 85.333-38.205 85.333-85.333v0-426.667c0-47.128-38.205-85.333-85.333-85.333v0h-682.667c-47.128 0-85.333 38.205-85.333 85.333v0 426.667c0 47.128 38.205 85.333 85.333 85.333v0zM170.667 640v-426.667h682.667v426.667h-682.667zM554.667 554.667h213.333c23.564 0 42.667-19.103 42.667-42.667s-19.103-42.667-42.667-42.667v0h-213.333c-23.564 0-42.667 19.103-42.667 42.667s19.103 42.667 42.667 42.667v0zM554.667 426.667h213.333c23.564 0 42.667-19.103 42.667-42.667s-19.103-42.667-42.667-42.667v0h-213.333c-23.564 0-42.667 19.103-42.667 42.667s19.103 42.667 42.667 42.667v0zM256 554.667h128c23.564 0 42.667-19.103 42.667-42.667v0-128c0-23.564-19.103-42.667-42.667-42.667v0h-128c-23.564 0-42.667 19.103-42.667 42.667v0 128c0 23.564 19.103 42.667 42.667 42.667v0z" />
<glyph unicode="&#xe93d;" glyph-name="indent" d="M277.333 640h512c23.564 0 42.667-19.103 42.667-42.667s-19.103-42.667-42.667-42.667v0h-512c-23.564 0-42.667 19.103-42.667 42.667s19.103 42.667 42.667 42.667v0zM277.333 298.667h512c23.564 0 42.667-19.103 42.667-42.667s-19.103-42.667-42.667-42.667v0h-512c-23.564 0-42.667 19.103-42.667 42.667s19.103 42.667 42.667 42.667v0zM533.333 469.334h256c23.564 0 42.667-19.103 42.667-42.667s-19.103-42.667-42.667-42.667v0h-256c-23.564 0-42.667 19.103-42.667 42.667s19.103 42.667 42.667 42.667v0zM381.44 390.102l-87.808-52.651c-6.271-3.827-13.857-6.093-21.973-6.093-23.561 0-42.662 19.098-42.667 42.658v0 105.301c0.005 23.561 19.105 42.659 42.667 42.659 8.116 0 15.703-2.266 22.162-6.2l-0.188 0.107 87.723-52.651c12.476-7.596 20.68-21.123 20.68-36.565s-8.204-28.969-20.492-36.459l-0.188-0.107z" />
<glyph unicode="&#xe93e;" glyph-name="info" d="M512-0c-235.648 0-426.667 191.019-426.667 426.667s191.019 426.667 426.667 426.667 426.667-191.019 426.667-426.667-191.019-426.667-426.667-426.667zM512 85.334c188.513 0 341.333 152.82 341.333 341.333s-152.82 341.333-341.333 341.333v0c-188.513 0-341.333-152.82-341.333-341.333s152.82-341.333 341.333-341.333v0zM512 512c23.564 0 42.667-19.103 42.667-42.667v0-213.333c0-23.564-19.103-42.667-42.667-42.667s-42.667 19.103-42.667 42.667v0 213.333c0 23.564 19.103 42.667 42.667 42.667v0zM512 554.667c-23.564 0-42.667 19.103-42.667 42.667s19.103 42.667 42.667 42.667v0c23.564 0 42.667-19.103 42.667-42.667s-19.103-42.667-42.667-42.667v0z" />
<glyph unicode="&#xe93f;" glyph-name="instagram" d="M683.392 853.334h-344.32c-140.083-0.17-253.593-113.695-253.739-253.767v-344.334c0.17-140.083 113.695-253.593 253.767-253.739h344.334c140.083 0.17 253.593 113.695 253.739 253.767v344.334c-0.17 140.083-113.695 253.593-253.767 253.739h-0.014zM851.499 255.275c0-92.843-75.264-168.107-168.107-168.107v0h-344.32c-92.824 0.024-168.064 75.279-168.064 168.107v0 344.32c0.024 92.824 75.279 168.064 168.107 168.064h344.32c92.824-0.024 168.064-75.279 168.064-168.107v0-344.32zM511.232 647.723c-121.575-0.194-220.076-98.71-220.245-220.272v-0.016c0.145-121.612 98.679-220.161 220.271-220.331h0.017c121.627 0.146 220.185 98.704 220.331 220.317v0.014c-0.194 121.605-98.758 220.124-220.361 220.245h-0.012zM511.232 292.779c-74.345 0-134.613 60.268-134.613 134.613s60.268 134.613 134.613 134.613v0c74.345 0 134.613-60.268 134.613-134.613s-60.268-134.613-134.613-134.613v0zM784.768 646.059c0-29.149-23.63-52.779-52.779-52.779s-52.779 23.63-52.779 52.779c0 29.149 23.63 52.779 52.779 52.779s52.779-23.63 52.779-52.779z" />
<glyph unicode="&#xe940;" glyph-name="italic" d="M416.981 298.667l83.2 256h-52.181c-23.564 0-42.667 19.103-42.667 42.667s19.103 42.667 42.667 42.667v0h213.333c23.564 0 42.667-19.103 42.667-42.667s-19.103-42.667-42.667-42.667v0h-71.424l-83.2-256h69.291c23.564 0 42.667-19.103 42.667-42.667s-19.103-42.667-42.667-42.667v0h-213.333c-23.564 0-42.667 19.103-42.667 42.667s19.103 42.667 42.667 42.667v0h54.315z" />
<glyph unicode="&#xe941;" glyph-name="link" d="M264.107 411.947c7.486 7.467 17.817 12.084 29.227 12.084s21.741-4.617 29.228-12.085l-0.001 0.001c7.47-7.46 12.090-17.772 12.090-29.163s-4.621-21.702-12.090-29.162l-87.68-87.552c-14.952-14.923-24.202-35.555-24.202-58.347s9.25-43.424 24.201-58.345l0.001-0.001c14.971-14.934 35.634-24.168 58.453-24.168s43.482 9.234 58.455 24.169l-0.002-0.002 204.544 204.245c7.47 7.46 12.090 17.772 12.090 29.163s-4.621 21.702-12.090 29.162v0c-7.482 7.463-12.112 17.783-12.112 29.184s4.629 21.721 12.111 29.183l0.001 0.001c7.486 7.467 17.817 12.084 29.227 12.084s21.741-4.617 29.228-12.085l-0.001 0.001c22.435-22.386 36.314-53.337 36.314-87.531s-13.879-65.145-36.312-87.528l-204.589-204.248c-29.938-29.877-71.265-48.353-116.907-48.353s-86.969 18.475-116.91 48.356l0.003-0.003c-29.904 29.846-48.405 71.109-48.405 116.693s18.5 86.847 48.402 116.691l87.725 87.597zM759.893 441.387c-7.486-7.467-17.817-12.084-29.227-12.084s-21.741 4.617-29.228 12.085l0.001-0.001c-7.47 7.46-12.090 17.772-12.090 29.163s4.621 21.702 12.090 29.162l87.68 87.552c14.952 14.923 24.202 35.555 24.202 58.347s-9.25 43.424-24.201 58.345l-0.001 0.001c-14.971 14.934-35.634 24.168-58.453 24.168s-43.482-9.234-58.455-24.169l0.002 0.002-204.501-204.245c-7.47-7.46-12.090-17.772-12.090-29.163s4.621-21.702 12.090-29.162v0c7.482-7.463 12.112-17.783 12.112-29.184s-4.629-21.721-12.111-29.183l-0.001-0.001c-7.486-7.467-17.817-12.084-29.227-12.084s-21.741 4.617-29.228 12.085l0.001-0.001c-22.435 22.386-36.314 53.337-36.314 87.531s13.879 65.145 36.312 87.528l204.589 204.248c29.938 29.877 71.265 48.353 116.907 48.353s86.969-18.475 116.91-48.356l-0.003 0.003c29.904-29.846 48.405-71.109 48.405-116.693s-18.5-86.847-48.402-116.691l-87.768-87.597z" />
<glyph unicode="&#xe942;" glyph-name="linkedin" d="M936.917 353.323v-314.837h-182.528v293.76c0 73.813-26.411 124.16-92.459 124.16-50.432 0-80.469-33.963-93.653-66.773-4.821-11.733-6.059-28.075-6.059-44.501v-306.645h-182.613s2.475 497.493 0 549.077h182.613v-77.824l-1.195-1.792h1.195v1.792c24.235 37.333 67.541 90.709 164.523 90.709 120.107 0 210.176-78.507 210.176-247.125zM188.629 852.224c-62.421 0-103.296-40.96-103.296-94.848 0-52.693 39.68-94.891 100.907-94.891h1.195c63.701 0 103.253 42.197 103.253 94.891-1.109 53.888-39.509 94.848-102.016 94.848zM96.171 38.486h182.528v549.077h-182.528v-549.077z" />
<glyph unicode="&#xe943;" glyph-name="map-marker" d="M725.333 554.667c0 117.821-95.513 213.333-213.333 213.333s-213.333-95.513-213.333-213.333v0c0-73.643 70.827-214.656 213.333-411.861 142.507 197.205 213.333 338.219 213.333 411.861zM512-0c-199.125 259.84-298.667 444.715-298.667 554.667 0 164.949 133.718 298.667 298.667 298.667s298.667-133.718 298.667-298.667v0c0-109.952-99.541-294.827-298.667-554.667zM512 384c-94.257 0-170.667 76.41-170.667 170.667s76.41 170.667 170.667 170.667v0c94.257 0 170.667-76.41 170.667-170.667s-76.41-170.667-170.667-170.667v0zM512 469.334c47.128 0 85.333 38.205 85.333 85.333s-38.205 85.333-85.333 85.333v0c-47.128 0-85.333-38.205-85.333-85.333s38.205-85.333 85.333-85.333v0z" />
<glyph unicode="&#xe944;" glyph-name="map" d="M170.667 101.846l145.877 48.64c6.59 2.323 14.901 4.62 23.398 6.41l1.392 0.246v594.347l-170.667-56.917v-592.725zM142.421 2.518c-4.292-1.591-9.249-2.511-14.421-2.511-23.562 0-42.663 19.099-42.667 42.66v0 682.667c0 0.002 0 0.005 0 0.008 0 19.088 12.534 35.248 29.82 40.699l0.302 0.082 201.088 67.029c20.129 6.939 43.325 10.946 67.456 10.946s47.327-4.007 68.957-11.391l-1.501 0.445 148.053-49.365c12.082-4.167 26.006-6.573 40.491-6.573s28.408 2.406 41.392 6.84l-0.901-0.267 201.088 67.029c4.292 1.591 9.249 2.511 14.421 2.511 23.562 0 42.663-19.099 42.667-42.66v0-682.667c0-0.002 0-0.005 0-0.008 0-19.088-12.534-35.248-29.82-40.699l-0.302-0.082-201.088-67.029c-20.129-6.939-43.325-10.946-67.456-10.946s-47.327 4.007-68.957 11.391l1.501-0.445-148.053 49.365c-12.082 4.167-26.006 6.573-40.491 6.573s-28.408-2.406-41.392-6.84l0.901 0.267-201.088-67.029zM853.333 158.72v592.768l-145.877-48.64c-6.59-2.323-14.901-4.62-23.398-6.41l-1.392-0.246v-594.347l170.667 56.917zM597.333 101.803v594.389c-9.888 2.036-18.199 4.333-26.29 7.102l1.501-0.446-145.877 48.64v-594.347c9.888-2.036 18.199-4.333 26.29-7.102l-1.501 0.446 145.877-48.64z" />
<glyph unicode="&#xe945;" glyph-name="message" d="M485.461 320h325.205c23.564 0 42.667 19.103 42.667 42.667v0 341.333c0 23.564-19.103 42.667-42.667 42.667v0h-597.333c-23.564 0-42.667-19.103-42.667-42.667v0-341.333c0-23.564 19.103-42.667 42.667-42.667v0c23.564 0 42.667-19.103 42.667-42.667v0-128.555l229.461 171.221zM213.333 832h597.333c70.692 0 128-57.308 128-128v0-341.333c0-70.692-57.308-128-128-128v0h-296.875l-274.944-205.141c-7.026-5.288-15.899-8.47-25.515-8.47-23.564 0-42.667 19.103-42.667 42.667 0 0.008 0 0.015 0 0.023v-0.001 170.923c-47.128 0-85.333 38.205-85.333 85.333v0 384c0 70.692 57.308 128 128 128v0z" />
<glyph unicode="&#xe946;" glyph-name="minus-circle" d="M512 85.334c188.513 0 341.333 152.82 341.333 341.333s-152.82 341.333-341.333 341.333v0c-188.513 0-341.333-152.82-341.333-341.333s152.82-341.333 341.333-341.333v0zM512-0c-235.648 0-426.667 191.019-426.667 426.667s191.019 426.667 426.667 426.667 426.667-191.019 426.667-426.667-191.019-426.667-426.667-426.667zM298.667 469.334h426.667c23.564 0 42.667-19.103 42.667-42.667s-19.103-42.667-42.667-42.667v0h-426.667c-23.564 0-42.667 19.103-42.667 42.667s19.103 42.667 42.667 42.667v0z" />
<glyph unicode="&#xe947;" glyph-name="movie" d="M341.333 213.334v-128h341.333v298.667h-341.333v-170.667zM256 298.667v85.333h-85.333v85.333h85.333v85.333h-85.333v-256h85.333zM256 213.334h-85.333v-42.667c0-47.128 38.205-85.333 85.333-85.333v0 128zM853.333 298.667v256h-85.333v-85.333h85.333v-85.333h-85.333v-85.333h85.333zM853.333 213.334h-85.333v-128c47.128 0 85.333 38.205 85.333 85.333v0 42.667zM682.667 554.667v213.333h-341.333v-298.667h341.333v85.333zM853.333 640v42.667c0 47.128-38.205 85.333-85.333 85.333v0-128h85.333zM256 640v128c-47.128 0-85.333-38.205-85.333-85.333v0-42.667h85.333zM256 853.334h512c94.257 0 170.667-76.41 170.667-170.667v0-512c0-94.257-76.41-170.667-170.667-170.667v0h-512c-94.257 0-170.667 76.41-170.667 170.667v0 512c0 94.257 76.41 170.667 170.667 170.667v0z" />
<glyph unicode="&#xe948;" glyph-name="music" d="M638.037 328.363v482.304c0 23.564 19.103 42.667 42.667 42.667v0h1.195c23.564 0 42.667-19.103 42.667-42.667v0-600.107c8.405-84.011-60.587-170.24-165.291-200.235-114.773-32.939-229.035 14.208-255.147 105.301s45.781 191.616 160.597 224.555c62.72 17.963 125.227 12.075 173.312-11.819zM535.637 92.8c72.448 20.779 112.853 77.227 101.12 118.187-11.776 41.003-75.947 67.499-148.395 46.72s-112.853-77.227-101.12-118.229c11.776-40.96 75.947-67.456 148.395-46.677z" />
<glyph unicode="&#xe949;" glyph-name="newspaper" d="M298.667 853.334h426.667c70.692 0 128-57.308 128-128v0-597.333c0-70.692-57.308-128-128-128v0h-426.667c-70.692 0-128 57.308-128 128v0 597.333c0 70.692 57.308 128 128 128v0zM298.667 768c-23.564 0-42.667-19.103-42.667-42.667v0-597.333c0-23.564 19.103-42.667 42.667-42.667v0h426.667c23.564 0 42.667 19.103 42.667 42.667v0 597.333c0 23.564-19.103 42.667-42.667 42.667v0h-426.667zM384 213.334h85.333c23.564 0 42.667-19.103 42.667-42.667s-19.103-42.667-42.667-42.667v0h-85.333c-23.564 0-42.667 19.103-42.667 42.667s19.103 42.667 42.667 42.667v0zM640 725.334c23.564 0 42.667-19.103 42.667-42.667s-19.103-42.667-42.667-42.667v0c-23.564 0-42.667 19.103-42.667 42.667s19.103 42.667 42.667 42.667v0zM640 597.334c23.564 0 42.667-19.103 42.667-42.667s-19.103-42.667-42.667-42.667v0c-23.564 0-42.667 19.103-42.667 42.667s19.103 42.667 42.667 42.667v0zM384 341.334h256c23.564 0 42.667-19.103 42.667-42.667s-19.103-42.667-42.667-42.667v0h-256c-23.564 0-42.667 19.103-42.667 42.667s19.103 42.667 42.667 42.667v0zM384 469.334h256c23.564 0 42.667-19.103 42.667-42.667s-19.103-42.667-42.667-42.667v0h-256c-23.564 0-42.667 19.103-42.667 42.667s19.103 42.667 42.667 42.667v0zM405.333 725.334h85.333c35.346 0 64-28.654 64-64v0-85.333c0-35.346-28.654-64-64-64v0h-85.333c-35.346 0-64 28.654-64 64v0 85.333c0 35.346 28.654 64 64 64v0z" />
<glyph unicode="&#xe94a;" glyph-name="opera" d="M743.168 786.347c-63.787 43.093-142.763 66.987-231.808 66.987-81.493 0-154.453-19.883-215.168-56.32-116.907-69.291-188.928-199.125-188.928-365.483 0-225.024 161.579-429.995 404.011-429.995 242.389 0 403.968 204.928 403.968 429.995 0 158.165-65.109 283.307-172.075 354.816zM511.317 773.846c130.048 0 161.493-178.432 161.493-340.565 0-150.187-19.712-351.147-159.915-351.147-140.245 0-163.371 202.923-163.371 353.109 0 162.133 31.744 338.603 161.792 338.603z" />
<glyph unicode="&#xe94b;" glyph-name="padlock-open" d="M298.667 341.334v-256h426.667v256h-426.667zM640 640c0 70.692-57.308 128-128 128s-128-57.308-128-128v0-213.333h341.333c47.128 0 85.333-38.205 85.333-85.333v0-256c0-47.128-38.205-85.333-85.333-85.333v0h-426.667c-47.128 0-85.333 38.205-85.333 85.333v0 256c0 47.128 38.205 85.333 85.333 85.333v0 213.333c0 117.821 95.513 213.333 213.333 213.333s213.333-95.513 213.333-213.333v0c0-23.564-19.103-42.667-42.667-42.667s-42.667 19.103-42.667 42.667v0zM512 128c-47.128 0-85.333 38.205-85.333 85.333s38.205 85.333 85.333 85.333v0c47.128 0 85.333-38.205 85.333-85.333s-38.205-85.333-85.333-85.333v0z" />
<glyph unicode="&#xe94c;" glyph-name="padlock" d="M298.667 341.334v-256h426.667v256h-426.667zM725.333 426.667c47.128 0 85.333-38.205 85.333-85.333v0-256c0-47.128-38.205-85.333-85.333-85.333v0h-426.667c-47.128 0-85.333 38.205-85.333 85.333v0 256c0 47.128 38.205 85.333 85.333 85.333v0 213.333c0 117.821 95.513 213.333 213.333 213.333s213.333-95.513 213.333-213.333v0-213.333zM640 426.667v213.333c0 70.692-57.308 128-128 128s-128-57.308-128-128v0-213.333h256zM512 128c-47.128 0-85.333 38.205-85.333 85.333s38.205 85.333 85.333 85.333v0c47.128 0 85.333-38.205 85.333-85.333s-38.205-85.333-85.333-85.333v0z" />
<glyph unicode="&#xe94d;" glyph-name="paper-plane" d="M806.699 663.894l-326.613-326.613c9.685-13.867 17.92-28.843 24.533-44.715l81.493-196.224 220.587 567.595zM422.613 394.752l326.656 326.656-567.595-220.587 196.224-81.536c17.107-7.171 31.816-15.392 45.452-25.028l-0.738 0.495zM918.315 730.198l-257.152-661.589c-16.213-41.813-63.019-63.275-104.491-47.957-20.531 7.736-36.611 23.261-44.906 42.879l-0.192 0.513-81.493 196.224c-16.197 38.366-46.114 68.284-83.456 84.095l-1.024 0.385-196.267 81.493c-40.704 16.939-59.307 64-41.472 105.216 8.996 20.362 25.306 36.117 45.518 44.176l0.562 0.198 661.589 257.237c8.741 3.623 18.892 5.727 29.535 5.727 43.641 0 79.019-35.378 79.019-79.019 0-10.643-2.104-20.794-5.919-30.061l0.192 0.526z" />
<glyph unicode="&#xe94e;" glyph-name="pencil" d="M628.821 598.528l-385.621-385.621-25.216-86.016 84.267 24.363 386.901 386.901-60.331 60.373zM694.613 664.32l60.331-60.331 56.235 56.235c3.859 3.86 6.246 9.193 6.246 15.083s-2.387 11.222-6.246 15.083v0l-30.208 30.165c-3.86 3.859-9.193 6.246-15.083 6.246s-11.222-2.387-15.083-6.246v0l-56.149-56.235zM841.344 780.886l30.165-30.165c19.296-19.302 31.231-45.964 31.231-75.413s-11.935-56.112-31.231-75.414l-524.458-524.501-180.053-52.053c-3.541-1.060-7.609-1.67-11.82-1.67-23.564 0-42.667 19.103-42.667 42.667 0 4.26 0.624 8.373 1.786 12.255l-0.078-0.302 53.248 181.547 523.093 523.093c19.302 19.296 45.964 31.231 75.413 31.231s56.112-11.935 75.414-31.231v0z" />
<glyph unicode="&#xe94f;" glyph-name="phone" d="M384 853.334h256c70.692 0 128-57.308 128-128v0-597.333c0-70.692-57.308-128-128-128v0h-256c-70.692 0-128 57.308-128 128v0 597.333c0 70.692 57.308 128 128 128v0zM384 768c-23.564 0-42.667-19.103-42.667-42.667v0-597.333c0-23.564 19.103-42.667 42.667-42.667v0h256c23.564 0 42.667 19.103 42.667 42.667v0 597.333c0 23.564-19.103 42.667-42.667 42.667v0h-256zM512 128c-23.564 0-42.667 19.103-42.667 42.667s19.103 42.667 42.667 42.667v0c23.564 0 42.667-19.103 42.667-42.667s-19.103-42.667-42.667-42.667v0z" />
<glyph unicode="&#xe950;" glyph-name="picture" d="M853.333 405.206v234.795c0 23.564-19.103 42.667-42.667 42.667v0h-597.333c-23.564 0-42.667-19.103-42.667-42.667v0-426.667c0-23.564 19.103-42.667 42.667-42.667v0h149.504l187.307 312.405c22.775 37.492 63.39 62.155 109.765 62.155 35.263 0 67.195-14.259 90.345-37.326l103.079-102.695zM853.333 284.758l-163.328 162.731c-7.713 7.673-18.347 12.416-30.089 12.416-15.466 0-29.010-8.229-36.492-20.547l-0.107-0.189-160.981-268.501h348.331c23.564 0 42.667 19.103 42.667 42.667v0 71.424zM213.333 768h597.333c70.692 0 128-57.308 128-128v0-426.667c0-70.692-57.308-128-128-128v0h-597.333c-70.692 0-128 57.308-128 128v0 426.667c0 70.692 57.308 128 128 128v0zM341.333 384c-70.692 0-128 57.308-128 128s57.308 128 128 128v0c70.692 0 128-57.308 128-128s-57.308-128-128-128v0zM341.333 469.334c23.564 0 42.667 19.103 42.667 42.667s-19.103 42.667-42.667 42.667v0c-23.564 0-42.667-19.103-42.667-42.667s19.103-42.667 42.667-42.667v0z" />
<glyph unicode="&#xe951;" glyph-name="pinterest" d="M455.253 294.528c-21.589-116.309-47.872-227.84-125.867-286.080-24.021 175.787 35.371 307.84 62.933 448-47.019 81.493 5.675 245.547 104.832 205.141 122.027-49.749-105.685-303.019 47.189-334.677 159.616-33.024 224.811 285.141 125.824 388.651-143.019 149.376-416.299 3.371-382.677-210.517 8.192-52.309 60.629-68.181 20.949-140.373-91.52 20.949-118.827 95.275-115.285 194.389 5.632 162.133 141.525 275.712 277.803 291.413 172.373 19.883 334.123-65.152 356.437-232.107 25.173-188.416-77.781-392.533-262.059-377.813-49.963 3.968-70.955 29.44-110.080 53.973z" />
<glyph unicode="&#xe952;" glyph-name="plus-circle" d="M512-0c-235.648 0-426.667 191.019-426.667 426.667s191.019 426.667 426.667 426.667 426.667-191.019 426.667-426.667-191.019-426.667-426.667-426.667zM512 85.334c188.513 0 341.333 152.82 341.333 341.333s-152.82 341.333-341.333 341.333v0c-188.513 0-341.333-152.82-341.333-341.333s152.82-341.333 341.333-341.333v0zM554.667 384v-170.667c0-23.564-19.103-42.667-42.667-42.667s-42.667 19.103-42.667 42.667v0 170.667h-170.667c-23.564 0-42.667 19.103-42.667 42.667s19.103 42.667 42.667 42.667v0h170.667v170.667c0 23.564 19.103 42.667 42.667 42.667s42.667-19.103 42.667-42.667v0-170.667h170.667c23.564 0 42.667-19.103 42.667-42.667s-19.103-42.667-42.667-42.667v0h-170.667z" />
<glyph unicode="&#xe953;" glyph-name="power" d="M640 657.067c-15.448 6.193-26.187 20.982-26.325 38.297v0.017c0 22.869 19.115 41.472 42.667 41.472 4.949 0 9.728-0.853 14.165-2.347 0.043 0.128 0.085 0.171 0.171 0.128 132.907-58.709 225.323-188.843 225.323-340.053 0-206.080-171.947-373.248-384-373.248s-384 167.125-384 373.291c0 150.144 91.179 279.509 222.635 338.816 4.88 2.051 10.552 3.243 16.502 3.243 0.078 0 0.157 0 0.235-0.001h-0.012c23.552 0 42.667-18.56 42.667-41.429-0.111-17.237-10.721-31.968-25.75-38.129l-0.276-0.1c-100.907-46.592-170.667-146.603-170.667-262.4 0-160.341 133.717-290.347 298.667-290.347s298.667 130.005 298.667 290.347c0 115.797-69.76 215.808-170.667 262.4zM512 832c23.564 0 42.667-19.103 42.667-42.667v0-256c0-23.564-19.103-42.667-42.667-42.667s-42.667 19.103-42.667 42.667v0 256c0 23.564 19.103 42.667 42.667 42.667v0z" />
<glyph unicode="&#xe954;" glyph-name="printer" d="M768 256h42.667c23.564 0 42.667 19.103 42.667 42.667v0 256c0 23.564-19.103 42.667-42.667 42.667v0h-597.333c-23.564 0-42.667-19.103-42.667-42.667v0-256c0-23.564 19.103-42.667 42.667-42.667v0h42.667v213.333h512v-213.333zM256 682.667v170.667h512v-170.667h42.667c70.692 0 128-57.308 128-128v0-256c0-70.692-57.308-128-128-128v0h-42.667v-170.667h-512v170.667h-42.667c-70.692 0-128 57.308-128 128v0 256c0 70.692 57.308 128 128 128v0h42.667zM341.333 85.334h341.333v298.667h-341.333v-298.667zM341.333 682.667h341.333v85.333h-341.333v-85.333z" />
<glyph unicode="&#xe955;" glyph-name="redo" d="M868.139 544.427l36.139 54.016c7.652 11.223 20.376 18.495 34.799 18.495 8.926 0 17.201-2.786 24.004-7.535l-0.136 0.090c19.456-13.227 24.747-39.68 11.819-59.008l-93.696-140.032c-7.652-11.223-20.376-18.495-34.799-18.495-8.926 0-17.201 2.786-24.004 7.535l0.136-0.090-141.013 95.829c-11.445 7.79-18.863 20.756-18.863 35.455 0 8.752 2.63 16.89 7.143 23.667l-0.098-0.157c7.65 11.239 20.383 18.524 34.818 18.524 8.918 0 17.186-2.78 23.985-7.521l-0.137 0.090 57.344-39.040c-41.984 139.947-170.325 241.749-322.091 241.749-185.899 0-336.64-152.832-336.64-341.333s150.741-341.333 336.64-341.333c23.253 0 42.112-19.115 42.112-42.667s-18.859-42.667-42.112-42.667c-232.405 0-420.821 191.019-420.821 426.667s188.416 426.667 420.821 426.667c192.171 0 354.219-130.56 404.651-308.907z" />
<glyph unicode="&#xe956;" glyph-name="refresh" d="M824.747 653.056l17.92 58.752c5.513 17.627 21.694 30.196 40.811 30.196 23.569 0 42.676-19.107 42.676-42.676 0-4.453-0.682-8.747-1.947-12.782l0.082 0.302-49.92-163.2c-5.513-17.622-21.69-30.187-40.801-30.187-4.441 0-8.724 0.679-12.75 1.938l0.302-0.081-163.2 49.92c-18.094 5.214-31.106 21.623-31.106 41.071 0 23.564 19.103 42.667 42.667 42.667 4.792 0 9.4-0.79 13.7-2.247l-0.301 0.088 71.339-21.803c-57.174 85.807-153.535 141.577-262.921 141.577-130.864 0-243.085-79.82-290.633-193.43l-0.771-2.078-11.093-27.008c-6.274-16.249-21.768-27.566-39.905-27.566-23.564 0-42.667 19.103-42.667 42.667 0 6.24 1.34 12.167 3.747 17.51l-0.108-0.269 11.093 27.008c61.417 147.024 204.041 248.463 370.356 248.463 138.559 0 260.674-70.406 332.521-177.393l0.909-1.438zM162.475 200.235l-13.952-55.936c-4.431-19.201-21.382-33.3-41.626-33.3-23.564 0-42.667 19.103-42.667 42.667 0 4.015 0.555 7.901 1.591 11.584l-0.072-0.3 41.259 165.547c4.75 18.769 21.49 32.437 41.422 32.437 4.479 0 8.797-0.69 12.853-1.97l-0.302 0.082 163.328-40.704c18.726-4.785 32.351-21.505 32.351-41.408 0-23.569-19.107-42.676-42.676-42.676-3.667 0-7.225 0.462-10.621 1.332l0.296-0.064-76.203 18.987c57.103-86.481 153.861-142.754 263.763-142.754 139.759 0 258.263 91.003 299.489 216.985l0.631 2.228c5.667 17.375 21.724 29.709 40.661 29.709 23.572 0 42.68-19.108 42.68-42.68 0-4.634-0.738-9.095-2.104-13.272l0.085 0.302c-36.994-113.628-120.228-203.152-226.906-247.809l-2.64-0.98c-44.888-18.906-97.069-29.892-151.816-29.892-135.64 0-255.53 67.435-327.973 170.607l-0.852 1.28z" />
<glyph unicode="&#xe957;" glyph-name="repeat" d="M587.691 170.667l50.176-50.176c7.41-7.665 11.977-18.12 11.977-29.641 0-23.564-19.103-42.667-42.667-42.667-11.521 0-21.976 4.567-29.653 11.989l-120.692 120.649c-7.718 7.721-12.492 18.386-12.492 30.165s4.774 22.445 12.492 30.165l120.704 120.704c7.722 7.716 18.386 12.489 30.165 12.489 23.569 0 42.675-19.106 42.675-42.675 0-11.79-4.781-22.463-12.51-30.186l-45.526-45.483h90.325c94.257 0 170.667 76.41 170.667 170.667s-76.41 170.667-170.667 170.667v0c-23.564 0-42.667 19.103-42.667 42.667s19.103 42.667 42.667 42.667v0c141.385 0 256-114.615 256-256s-114.615-256-256-256v0h-94.976zM438.315 682.667l-46.805 46.763c-7.725 7.725-12.504 18.398-12.504 30.187 0 23.577 19.113 42.69 42.69 42.69 11.789 0 22.461-4.778 30.187-12.504v0l120.661-120.704c7.718-7.721 12.492-18.386 12.492-30.165s-4.774-22.445-12.492-30.165l-120.661-120.661c-7.724-7.729-18.397-12.51-30.187-12.51-23.569 0-42.675 19.106-42.675 42.675 0 11.779 4.772 22.444 12.489 30.166v0l48.939 48.896h-99.115c-94.257 0-170.667-76.41-170.667-170.667s76.41-170.667 170.667-170.667v0c23.564 0 42.667-19.103 42.667-42.667s-19.103-42.667-42.667-42.667v0c-141.385 0-256 114.615-256 256s114.615 256 256 256v0h96.981z" />
<glyph unicode="&#xe958;" glyph-name="save" d="M213.333 810.667h478.72c22.131-0.002 42.293-8.429 57.454-22.248l-0.068 0.061 118.613-107.819c17.195-15.666 27.944-38.151 27.947-63.146v-489.516c0-47.128-38.205-85.333-85.333-85.333v0h-597.333c-47.128 0-85.333 38.205-85.333 85.333v0 597.333c0 47.128 38.205 85.333 85.333 85.333v0zM213.333 725.334v-597.333h597.333v489.515l-118.613 107.819h-478.72zM384 384h256c47.128 0 85.333-38.205 85.333-85.333v0-170.667c0-47.128-38.205-85.333-85.333-85.333v0h-256c-47.128 0-85.333 38.205-85.333 85.333v0 170.667c0 47.128 38.205 85.333 85.333 85.333v0zM384 298.667v-170.667h256v170.667h-256zM682.667 682.667c23.564 0 42.667-19.103 42.667-42.667v0-128c0-23.564-19.103-42.667-42.667-42.667s-42.667 19.103-42.667 42.667v0 128c0 23.564 19.103 42.667 42.667 42.667v0zM341.333 682.667h213.333c23.564 0 42.667-19.103 42.667-42.667v0-128c0-23.564-19.103-42.667-42.667-42.667v0h-213.333c-23.564 0-42.667 19.103-42.667 42.667v0 128c0 23.564 19.103 42.667 42.667 42.667v0zM384 554.667h128v42.667h-128v-42.667z" />
<glyph unicode="&#xe959;" glyph-name="scissors" d="M495.232 381.696l-74.411-88.576c19.847-27.498 31.744-61.879 31.744-99.038 0-41.861-15.097-80.195-40.144-109.855l0.208 0.253c-31.545-37.323-78.39-60.862-130.732-60.862-41.88 0-80.24 15.070-109.954 40.082l0.259-0.212c-37.379 31.448-60.967 78.25-60.967 130.561 0 41.849 15.096 80.171 40.14 109.82l-0.208-0.253c31.554 37.347 78.419 60.904 130.787 60.904 26.714 0 51.997-6.13 74.518-17.061l-1.016 0.445 84.053 100.096-229.888 273.621c-6.209 7.35-9.983 16.932-9.983 27.396 0 13.074 5.893 24.773 15.167 32.584l0.064 0.053c7.363 6.214 16.958 9.99 27.435 9.99 13.090 0 24.803-5.895 32.63-15.174l0.053-0.064 220.245-262.144 220.203 262.144c7.88 9.356 19.6 15.259 32.7 15.259 10.489 0 20.094-3.785 27.523-10.063l-0.063 0.052c9.339-7.864 15.231-19.562 15.231-32.636 0-10.463-3.774-20.045-10.035-27.459l0.052 0.063-229.931-273.621 84.053-100.053c21.504 10.485 46.787 16.616 73.501 16.616 52.367 0 99.233-23.556 130.578-60.65l0.208-0.253c24.836-29.395 39.932-67.718 39.932-109.567 0-52.311-23.588-99.113-60.708-130.349l-0.259-0.212c-29.455-24.8-67.815-39.87-109.695-39.87-52.342 0-99.186 23.539-130.524 60.61l-0.208 0.252c-24.838 29.407-39.936 67.741-39.936 109.602 0 37.159 11.896 71.54 32.089 99.541l-0.345-0.503-74.368 88.533zM227.072 128.811c14.269-11.118 32.449-17.825 52.196-17.825 47.128 0 85.333 38.205 85.333 85.333 0 24.945-10.703 47.39-27.768 62.993l-0.065 0.059c-14.729 12.407-33.914 19.945-54.86 19.945-26.176 0-49.602-11.774-65.271-30.315l-0.104-0.126c-30.293-36.053-25.6-89.813 10.539-120.064zM763.392 128.811c18.677 15.728 30.462 39.124 30.462 65.273 0 20.927-7.548 40.091-20.070 54.918l0.104-0.127c-15.773 18.655-39.191 30.421-65.357 30.421-20.934 0-40.11-7.531-54.965-20.031l0.13 0.106c-18.692-15.728-30.487-39.133-30.487-65.294 0-20.917 7.541-40.073 20.053-54.897l-0.104 0.127c30.293-36.053 84.139-40.747 120.235-10.496z" />
<glyph unicode="&#xe95a;" glyph-name="screen" d="M213.333 725.334c-23.564 0-42.667-19.103-42.667-42.667v0-384c0-23.564 19.103-42.667 42.667-42.667v0h597.333c23.564 0 42.667 19.103 42.667 42.667v0 384c0 23.564-19.103 42.667-42.667 42.667v0h-597.333zM213.333 810.667h597.333c70.692 0 128-57.308 128-128v0-384c0-70.692-57.308-128-128-128v0h-597.333c-70.692 0-128 57.308-128 128v0 384c0 70.692 57.308 128 128 128v0zM384 128h256c23.564 0 42.667-19.103 42.667-42.667s-19.103-42.667-42.667-42.667v0h-256c-23.564 0-42.667 19.103-42.667 42.667s19.103 42.667 42.667 42.667v0z" />
<glyph unicode="&#xe95b;" glyph-name="search-minus" d="M448 234.667c141.385 0 256 114.615 256 256s-114.615 256-256 256v0c-141.385 0-256-114.615-256-256s114.615-256 256-256v0zM717.653 281.344l152.747-152.747c8.023-7.768 13.003-18.636 13.003-30.668 0-23.564-19.103-42.667-42.667-42.667-12.053 0-22.939 4.998-30.698 13.034l-0.012 0.013-152.747 152.747c-57.168-44.715-130.083-71.701-209.301-71.701-188.513 0-341.333 152.82-341.333 341.333s152.82 341.333 341.333 341.333c188.513 0 341.333-152.82 341.333-341.333 0-79.218-26.987-152.133-72.268-210.054l0.567 0.753zM320 533.334h256c23.564 0 42.667-19.103 42.667-42.667s-19.103-42.667-42.667-42.667v0h-256c-23.564 0-42.667 19.103-42.667 42.667s19.103 42.667 42.667 42.667v0z" />
<glyph unicode="&#xe95c;" glyph-name="search-plus" d="M448 234.667c141.385 0 256 114.615 256 256s-114.615 256-256 256v0c-141.385 0-256-114.615-256-256s114.615-256 256-256v0zM717.653 281.344l152.747-152.747c8.023-7.768 13.003-18.636 13.003-30.668 0-23.564-19.103-42.667-42.667-42.667-12.053 0-22.939 4.998-30.698 13.034l-0.012 0.013-152.747 152.747c-57.168-44.715-130.083-71.701-209.301-71.701-188.513 0-341.333 152.82-341.333 341.333s152.82 341.333 341.333 341.333c188.513 0 341.333-152.82 341.333-341.333 0-79.218-26.987-152.133-72.268-210.054l0.567 0.753zM490.667 533.334h85.333c23.564 0 42.667-19.103 42.667-42.667s-19.103-42.667-42.667-42.667v0h-85.333v-85.333c0-23.564-19.103-42.667-42.667-42.667s-42.667 19.103-42.667 42.667v0 85.333h-85.333c-23.564 0-42.667 19.103-42.667 42.667s19.103 42.667 42.667 42.667v0h85.333v85.333c0 23.564 19.103 42.667 42.667 42.667s42.667-19.103 42.667-42.667v0-85.333z" />
<glyph unicode="&#xe95d;" glyph-name="search" d="M448 234.667c141.385 0 256 114.615 256 256s-114.615 256-256 256v0c-141.385 0-256-114.615-256-256s114.615-256 256-256v0zM717.653 281.344l152.747-152.747c8.023-7.768 13.003-18.636 13.003-30.668 0-23.564-19.103-42.667-42.667-42.667-12.053 0-22.939 4.998-30.698 13.034l-0.012 0.013-152.747 152.747c-57.168-44.715-130.083-71.701-209.301-71.701-188.513 0-341.333 152.82-341.333 341.333s152.82 341.333 341.333 341.333c188.513 0 341.333-152.82 341.333-341.333 0-79.218-26.987-152.133-72.268-210.054l0.567 0.753z" />
<glyph unicode="&#xe95e;" glyph-name="settings-alt" d="M469.333 256v469.333c0 23.564 19.103 42.667 42.667 42.667s42.667-19.103 42.667-42.667v0-469.333h42.667c23.564 0 42.667-19.103 42.667-42.667s-19.103-42.667-42.667-42.667v0h-42.667v-42.667c0-23.564-19.103-42.667-42.667-42.667s-42.667 19.103-42.667 42.667v0 42.667h-42.667c-23.564 0-42.667 19.103-42.667 42.667s19.103 42.667 42.667 42.667v0h42.667zM768 682.667v42.667c0 23.564 19.103 42.667 42.667 42.667s42.667-19.103 42.667-42.667v0-42.667h42.667c23.564 0 42.667-19.103 42.667-42.667s-19.103-42.667-42.667-42.667v0h-42.667v-469.333c0-23.564-19.103-42.667-42.667-42.667s-42.667 19.103-42.667 42.667v0 469.333h-42.667c-23.564 0-42.667 19.103-42.667 42.667s19.103 42.667 42.667 42.667v0h42.667zM256 554.667h42.667c23.564 0 42.667-19.103 42.667-42.667s-19.103-42.667-42.667-42.667v0h-42.667v-341.333c0-23.564-19.103-42.667-42.667-42.667s-42.667 19.103-42.667 42.667v0 341.333h-42.667c-23.564 0-42.667 19.103-42.667 42.667s19.103 42.667 42.667 42.667v0h42.667v170.667c0 23.564 19.103 42.667 42.667 42.667s42.667-19.103 42.667-42.667v0-170.667z" />
<glyph unicode="&#xe95f;" glyph-name="share-alt" d="M768 597.334c47.128 0 85.333 38.205 85.333 85.333s-38.205 85.333-85.333 85.333v0c-47.128 0-85.333-38.205-85.333-85.333s38.205-85.333 85.333-85.333v0zM423.595 459.094c1.966-9.746 3.091-20.95 3.091-32.417 0-13.374-1.531-26.39-4.426-38.884l0.226 1.157 215.040-108.245c31.51 37.162 78.231 60.592 130.425 60.592 94.257 0 170.667-76.41 170.667-170.667s-76.41-170.667-170.667-170.667c-94.257 0-170.667 76.41-170.667 170.667 0 11.729 1.183 23.181 3.437 34.244l-0.187-1.098-217.173 109.312c-31.395-35.098-76.822-57.086-127.383-57.086-94.257 0-170.667 76.41-170.667 170.667s76.41 170.667 170.667 170.667c52.467 0 99.404-23.675 130.711-60.925l0.214-0.261 214.869 107.605c-2.858 11.693-4.498 25.117-4.498 38.924 0 94.257 76.41 170.667 170.667 170.667s170.667-76.41 170.667-170.667c0-94.257-76.41-170.667-170.667-170.667-50.114 0-95.182 21.599-126.405 55.996l-0.127 0.142-217.813-109.056zM256 341.334c47.128 0 85.333 38.205 85.333 85.333s-38.205 85.333-85.333 85.333v0c-47.128 0-85.333-38.205-85.333-85.333s38.205-85.333 85.333-85.333v0zM768 85.334c47.128 0 85.333 38.205 85.333 85.333s-38.205 85.333-85.333 85.333v0c-47.128 0-85.333-38.205-85.333-85.333s38.205-85.333 85.333-85.333v0z" />
<glyph unicode="&#xe960;" glyph-name="shopping-cart" d="M426.667 85.334c-47.128 0-85.333 38.205-85.333 85.333s38.205 85.333 85.333 85.333v0c47.128 0 85.333-38.205 85.333-85.333s-38.205-85.333-85.333-85.333v0zM725.333 85.334c-47.128 0-85.333 38.205-85.333 85.333s38.205 85.333 85.333 85.333v0c47.128 0 85.333-38.205 85.333-85.333s-38.205-85.333-85.333-85.333v0zM169.045 685.952c-22.092 0.735-39.722 18.821-39.722 41.024s17.63 40.289 39.655 41.022l0.067 0.002h49.109c38.485 0 71.765-26.709 80.128-64.256l53.461-240.725c8.363-37.547 41.643-64.256 80.128-64.256h320.512l61.525 246.187h-398.72c-21.849 1.028-39.174 18.992-39.174 41.003s17.325 39.975 39.082 40.999l0.092 0.003h398.72c0.007 0 0.016 0 0.024 0 45.314 0 82.048-36.734 82.048-82.048 0-7.076-0.896-13.944-2.58-20.494l0.124 0.569-61.525-246.101c-9.211-35.987-41.35-62.165-79.602-62.165-0.005 0-0.010 0-0.014 0h-320.511c-0.006 0-0.014 0-0.022 0-78.016 0-143.317 54.444-159.98 127.411l-0.212 1.101-53.504 240.725h-49.109z" />
<glyph unicode="&#xe961;" glyph-name="shuffle" d="M919.381 604.288l-114.048-114.048c-7.724-7.729-18.397-12.51-30.187-12.51-23.569 0-42.675 19.106-42.675 42.675 0 11.779 4.772 22.444 12.489 30.166l46.762 46.762h-62.123c-105.426-0.001-193.742-73.251-216.832-171.633l-0.298-1.508c25.912-97.494 113.372-168.166 217.341-168.192h64.088l-48.939 48.939c-7.716 7.722-12.489 18.386-12.489 30.165 0 23.569 19.106 42.675 42.675 42.675 11.79 0 22.463-4.781 30.186-12.51l120.662-120.662c6.295-6.285 10.628-14.532 12.003-23.746l0.029-0.233c0.387-2.165 0.608-4.657 0.608-7.201 0-14.891-7.583-28.011-19.098-35.709l-0.156-0.098-114.048-114.048c-7.724-7.729-18.397-12.51-30.187-12.51-23.569 0-42.675 19.106-42.675 42.675 0 11.779 4.772 22.444 12.489 30.166l46.762 46.762h-61.909c-0.014 0-0.030 0-0.046 0-108.984 0-204.829 56.252-260.086 141.305l-0.732 1.202c-55.569-86.223-151.107-142.507-259.791-142.507-0.017 0-0.035 0-0.052 0h-81.107c-23.564 0-42.667 19.103-42.667 42.667s19.103 42.667 42.667 42.667v0h81.109c0.005 0 0.011 0 0.016 0 103.543 0 190.584 70.658 215.534 166.387l0.343 1.549c-24.018 100.129-112.778 173.397-218.65 173.397-0.006 0-0.012 0-0.018 0h-78.335c-23.564 0-42.667 19.103-42.667 42.667s19.103 42.667 42.667 42.667v0h78.336c0.002 0 0.004 0 0.007 0 109.819 0 206.298-57.118 261.35-143.266l0.745-1.246c55.37 87.362 151.54 144.512 261.058 144.512 0.037 0 0.074 0 0.111 0h64.335l-48.981 48.939c-7.716 7.722-12.489 18.386-12.489 30.165 0 23.569 19.106 42.675 42.675 42.675 11.79 0 22.463-4.781 30.186-12.51l120.662-120.662c6.295-6.285 10.628-14.532 12.003-23.746l0.029-0.233c0.387-2.165 0.608-4.657 0.608-7.201 0-14.891-7.583-28.011-19.098-35.709l-0.156-0.098z" />
<glyph unicode="&#xe962;" glyph-name="star-full" d="M512 161.835l-263.381-138.496 50.304 293.291-213.163 207.744 294.485 42.795 131.755 266.837 131.712-266.837 294.485-42.795-213.12-207.744 50.347-293.291z" />
<glyph unicode="&#xe963;" glyph-name="star-half" d="M512 157.27l-263.381-138.496 50.304 293.333-213.163 207.701 294.485 42.795 131.755 266.837 131.712-266.837 294.485-42.795-213.12-207.701 50.347-293.333-263.424 138.496zM512 253.696l150.059-78.933-28.672 167.125 121.429 118.357-167.765 24.363-75.051 152.021-75.051-152.021-167.765-24.363 121.429-118.357-28.672-167.083 150.059 78.891zM512 829.44l131.712-266.837 294.485-42.795-213.12-207.701 50.347-293.333-263.424 138.496v672.171z" />
<glyph unicode="&#xe964;" glyph-name="star" d="M512 253.696l150.059-78.933-28.672 167.125 121.429 118.357-167.765 24.363-75.051 152.021-75.051-152.021-167.765-24.363 121.429-118.357-28.672-167.083 150.059 78.891zM512 157.27l-263.381-138.496 50.304 293.333-213.163 207.701 294.485 42.795 131.755 266.837 131.712-266.837 294.485-42.795-213.12-207.701 50.347-293.333-263.424 138.496z" />
<glyph unicode="&#xe965;" glyph-name="stop-sign" d="M302.677 157.014c57.203-44.805 130.189-71.85 209.493-71.85 188.513 0 341.333 152.82 341.333 341.333 0 79.303-27.045 152.29-72.414 210.24l0.564-0.748-478.976-478.976zM242.347 217.344l478.976 478.976c-57.203 44.805-130.189 71.85-209.493 71.85-188.513 0-341.333-152.82-341.333-341.333 0-79.303 27.045-152.29 72.414-210.24l-0.564 0.748zM512-0c-235.648 0-426.667 191.019-426.667 426.667s191.019 426.667 426.667 426.667 426.667-191.019 426.667-426.667-191.019-426.667-426.667-426.667z" />
<glyph unicode="&#xe966;" glyph-name="subscript" d="M435.521 609.524l207.041-205.258c28.586-28.34 28.586-74.289 0-102.629s-74.934-28.34-103.52 0l-207.041 205.258-207.041-205.258c-28.586-28.34-74.934-28.34-103.52 0s-28.586 74.289 0 102.629l207.041 205.258-207.041 205.258c-28.586 28.34-28.586 74.289 0 102.629s74.934 28.34 103.52 0l207.041-205.258 207.041 205.258c28.586 28.34 74.934 28.34 103.52 0s28.586-74.289 0-102.629l-207.041-205.258zM1024 35.212v-120.545h-359.999v74.2l7.385 17.924 131.722 139.962c31.695 31.803 58.5 56.303 68.071 73.975 9.12 16.838 13.42 31.192 13.42 42.94 0 10.263-3.016 17.7-9.37 23.887-6.403 6.236-14.54 9.313-25.934 9.313-10.815 0-18.949-3.602-26.154-11.578-7.769-8.601-12.188-21.058-12.796-38.412l-0.867-24.71h-134.594l1.249 26.782c2.504 53.717 20.053 97.299 52.908 129.401 32.928 32.173 75.338 48.317 125.702 48.317 31.249 0 59.392-6.665 84.031-20.13 24.854-13.582 44.793-33.229 59.523-58.518 14.611-25.085 22.071-51.118 22.071-77.752 0-30.412-16.929-62.064-33.614-95.591-16.388-32.93-39.371-64.047-78.474-113.724l-8.594-8.985-18.71-16.755h143.024z" />
<glyph unicode="&#xe967;" glyph-name="superscript" d="M124.96 551.698l207.041-205.258 207.041 205.258c28.586 28.34 74.934 28.34 103.52 0s28.586-74.289 0-102.629l-207.041-205.258 207.041-205.258c28.586-28.34 28.586-74.289 0-102.629s-74.934-28.34-103.52 0l-207.041 205.258-207.041-205.258c-28.586-28.34-74.934-28.34-103.52 0s-28.586 74.289 0 102.629l207.041 205.258-207.041 205.258c-28.586 28.34-28.586 74.289 0 102.629s74.934 28.34 103.52 0zM854.743 938.667c31.249 0 59.392-6.665 84.031-20.13 24.854-13.582 44.793-33.229 59.523-58.518 14.611-25.085 22.071-51.118 22.071-77.752 0-30.412-16.929-62.064-33.614-95.591-16.388-32.93-39.371-64.047-78.474-113.724l-8.594-8.985-18.71-16.755h143.024v-120.545h-359.999v74.2l7.385 17.924 131.722 139.962c31.695 31.803 58.5 56.303 68.071 73.975 9.12 16.838 13.42 31.192 13.42 42.94 0 10.263-3.016 17.7-9.37 23.887-6.403 6.236-14.54 9.313-25.934 9.313-10.815 0-18.949-3.602-26.154-11.578-7.769-8.601-12.188-21.058-12.796-38.412l-0.867-24.71h-134.594l1.249 26.782c2.504 53.717 20.053 97.299 52.908 129.401 32.928 32.173 75.338 48.317 125.702 48.317z" />
<glyph unicode="&#xe968;" glyph-name="tablet" d="M298.667 853.334h426.667c70.692 0 128-57.308 128-128v0-597.333c0-70.692-57.308-128-128-128v0h-426.667c-70.692 0-128 57.308-128 128v0 597.333c0 70.692 57.308 128 128 128v0zM298.667 768c-23.564 0-42.667-19.103-42.667-42.667v0-597.333c0-23.564 19.103-42.667 42.667-42.667v0h426.667c23.564 0 42.667 19.103 42.667 42.667v0 597.333c0 23.564-19.103 42.667-42.667 42.667v0h-426.667zM512 128c-23.564 0-42.667 19.103-42.667 42.667s19.103 42.667 42.667 42.667v0c23.564 0 42.667-19.103 42.667-42.667s-19.103-42.667-42.667-42.667v0z" />
<glyph unicode="&#xe969;" glyph-name="task-list" d="M341.333 853.334h341.333c141.385 0 256-114.615 256-256v0-341.333c0-141.385-114.615-256-256-256v0h-341.333c-141.385 0-256 114.615-256 256v0 341.333c0 141.385 114.615 256 256 256v0zM341.333 768c-94.257 0-170.667-76.41-170.667-170.667v0-341.333c0-94.257 76.41-170.667 170.667-170.667v0h341.333c94.257 0 170.667 76.41 170.667 170.667v0 341.333c0 94.257-76.41 170.667-170.667 170.667v0h-341.333zM597.333 469.334h128c23.564 0 42.667-19.103 42.667-42.667s-19.103-42.667-42.667-42.667v0h-128c-23.564 0-42.667 19.103-42.667 42.667s19.103 42.667 42.667 42.667v0zM512 298.667h213.333c23.564 0 42.667-19.103 42.667-42.667s-19.103-42.667-42.667-42.667v0h-213.333c-23.564 0-42.667 19.103-42.667 42.667s19.103 42.667 42.667 42.667v0zM512 640h213.333c23.564 0 42.667-19.103 42.667-42.667s-19.103-42.667-42.667-42.667v0h-213.333c-23.564 0-42.667 19.103-42.667 42.667s19.103 42.667 42.667 42.667v0zM333.995 416.299l90.539 90.581c7.722 7.716 18.386 12.489 30.165 12.489 23.569 0 42.675-19.106 42.675-42.675 0-11.79-4.781-22.463-12.51-30.186l-120.662-120.662c-7.723-7.731-18.396-12.514-30.187-12.514s-22.464 4.782-30.186 12.513v0l-60.331 60.288c-7.41 7.665-11.977 18.12-11.977 29.641 0 23.564 19.103 42.667 42.667 42.667 11.521 0 21.976-4.567 29.653-11.989l30.153-30.153z" />
<glyph unicode="&#xe96a;" glyph-name="trash-2" d="M768 640v-554.667c0-11.776-4.736-22.4-12.501-30.165s-18.389-12.501-30.165-12.501h-426.667c-11.776 0-22.4 4.736-30.165 12.501s-12.501 18.389-12.501 30.165v554.667zM725.333 725.334v42.667c0 35.328-14.379 67.413-37.504 90.496s-55.168 37.504-90.496 37.504h-170.667c-35.328 0-67.413-14.379-90.496-37.504s-37.504-55.168-37.504-90.496v-42.667h-170.667c-23.552 0-42.667-19.115-42.667-42.667s19.115-42.667 42.667-42.667h42.667v-554.667c0-35.328 14.379-67.413 37.504-90.496s55.168-37.504 90.496-37.504h426.667c35.328 0 67.413 14.379 90.496 37.504s37.504 55.168 37.504 90.496v554.667h42.667c23.552 0 42.667 19.115 42.667 42.667s-19.115 42.667-42.667 42.667zM384 725.334v42.667c0 11.776 4.736 22.4 12.501 30.165s18.389 12.501 30.165 12.501h170.667c11.776 0 22.4-4.736 30.165-12.501s12.501-18.389 12.501-30.165v-42.667zM384 469.334v-256c0-23.552 19.115-42.667 42.667-42.667s42.667 19.115 42.667 42.667v256c0 23.552-19.115 42.667-42.667 42.667s-42.667-19.115-42.667-42.667zM554.667 469.334v-256c0-23.552 19.115-42.667 42.667-42.667s42.667 19.115 42.667 42.667v256c0 23.552-19.115 42.667-42.667 42.667s-42.667-19.115-42.667-42.667z" />
<glyph unicode="&#xe96b;" glyph-name="triangle-danger" d="M631.467 741.846l285.909-476.203c41.088-68.395 20.907-158.379-45.099-200.96-20.996-13.778-46.72-21.987-74.36-22.016h-571.869c-77.696 0-140.715 65.28-140.715 145.877 0 27.264 7.381 53.931 21.248 77.099l285.952 476.203c41.045 68.395 127.829 89.344 193.835 46.763 18.261-11.776 33.707-27.776 45.099-46.763zM536.747 706.048c-7.025 4.58-15.624 7.304-24.859 7.304-16.879 0-31.633-9.101-39.622-22.663l-0.117-0.215-285.909-476.288c-4.449-7.319-7.083-16.168-7.083-25.631 0-0.019 0-0.038 0-0.057v0.003c0-26.88 20.992-48.64 46.933-48.64h571.776c8.789 0 17.365 2.56 24.789 7.339 13.448 9.028 22.18 24.177 22.18 41.366 0 9.465-2.648 18.311-7.243 25.839l0.124-0.218-285.909 476.288c-3.827 6.328-8.867 11.545-14.837 15.462l-0.181 0.112zM512 213.334c-23.564 0-42.667 19.103-42.667 42.667s19.103 42.667 42.667 42.667v0c23.564 0 42.667-19.103 42.667-42.667s-19.103-42.667-42.667-42.667v0zM512 597.334c23.564 0 42.667-19.103 42.667-42.667v0-170.667c0-23.564-19.103-42.667-42.667-42.667s-42.667 19.103-42.667 42.667v0 170.667c0 23.564 19.103 42.667 42.667 42.667v0z" />
<glyph unicode="&#xe96c;" glyph-name="twitch" d="M160 853.334l-53.333-160v-586.667h213.333v-106.667h106.667l106.667 106.667h160l213.333 227.2v519.467h-746.667zM853.333 373.334l-149.333-160h-189.099l-114.901-83.584v83.584h-186.667v586.667h640v-426.667zM480 640h53.333v-213.333h-53.333zM640 640h53.333v-213.333h-53.333z" />
<glyph unicode="&#xe96d;" glyph-name="twitter" d="M938.667 686.635c-29.28-13.153-63.243-22.725-98.833-27.013l-1.69-0.166c36.060 21.441 63.252 54.58 76.612 94.094l0.359 1.224c-32.046-18.996-69.314-33.505-108.958-41.434l-2.274-0.379c-32.069 33.547-77.173 54.401-127.148 54.401-0.225 0-0.449 0-0.674-0.001h0.035c-96.683 0-175.061-77.227-175.061-172.373 0-13.483 1.536-26.667 4.523-39.253-145.346 7.121-273.463 75.328-360.139 179.294l-0.65 0.802c-14.852-24.655-23.638-54.421-23.638-86.238 0-0.132 0-0.264 0-0.396v0.020c0-59.861 30.891-112.64 77.824-143.488-29.213 0.971-56.379 8.87-80.179 22.093l0.904-0.461v-2.133c0-83.541 60.373-153.216 140.373-169.088-13.822-3.816-29.693-6.011-46.077-6.016h-0.003c-11.307 0-22.272 1.067-32.981 3.2 23.534-69.404 87.622-118.667 163.369-119.764l0.13-0.001c-59.207-45.964-134.574-73.687-216.415-73.687-0.342 0-0.683 0-1.025 0.001h0.053c-14.165 0-28.075 0.853-41.771 2.389 75.806-48.66 168.324-77.569 267.593-77.569 0.259 0 0.518 0 0.777 0.001h-0.040c322.005 0 498.048 262.699 498.048 490.496l-0.597 22.315c34.529 24.494 63.587 54.055 86.785 87.944l0.767 1.187z" />
<glyph unicode="&#xe96e;" glyph-name="underline" d="M362.667 234.667h298.667c11.782 0 21.333-9.551 21.333-21.333s-9.551-21.333-21.333-21.333v0h-298.667c-11.782 0-21.333 9.551-21.333 21.333s9.551 21.333 21.333 21.333v0zM597.333 576c-23.564 0-42.667 19.103-42.667 42.667s19.103 42.667 42.667 42.667v0h85.333c23.564 0 42.667-19.103 42.667-42.667s-19.103-42.667-42.667-42.667v0-128c0-94.257-76.41-170.667-170.667-170.667s-170.667 76.41-170.667 170.667v0 128c-23.564 0-42.667 19.103-42.667 42.667s19.103 42.667 42.667 42.667v0h85.333c23.564 0 42.667-19.103 42.667-42.667s-19.103-42.667-42.667-42.667v0-128c0-47.128 38.205-85.333 85.333-85.333s85.333 38.205 85.333 85.333v0 128z" />
<glyph unicode="&#xe96f;" glyph-name="undo" d="M247.808 528.555l57.685 39.381c6.606 4.562 14.785 7.288 23.6 7.288 14.535 0 27.339-7.408 34.843-18.655l0.096-0.153c4.517-6.7 7.211-14.954 7.211-23.838 0-14.61-7.285-27.518-18.42-35.291l-0.14-0.092-139.819-95.445c-6.606-4.562-14.785-7.288-23.6-7.288-14.535 0-27.339 7.408-34.843 18.655l-0.096 0.153-94.293 141.483c-4.539 6.707-7.246 14.977-7.246 23.878 0 14.619 7.301 27.532 18.455 35.293l0.141 0.093c6.606 4.562 14.785 7.288 23.6 7.288 14.535 0 27.339-7.408 34.843-18.655l0.096-0.153 35.797-53.717c51.883 176.128 213.163 304.555 404.096 304.555 232.875 0 421.632-191.019 421.632-426.667s-188.757-426.667-421.632-426.667c-23.313 0.145-42.155 19.077-42.155 42.41 0 0.090 0 0.18 0.001 0.271v-0.014c0 23.552 18.901 42.667 42.155 42.667 186.283 0 337.323 152.832 337.323 341.333s-151.040 341.333-337.323 341.333c-151.211 0-279.168-100.693-322.005-239.445z" />
<glyph unicode="&#xe970;" glyph-name="unindent" d="M256 640h512c23.564 0 42.667-19.103 42.667-42.667s-19.103-42.667-42.667-42.667v0h-512c-23.564 0-42.667 19.103-42.667 42.667s19.103 42.667 42.667 42.667v0zM256 298.667h512c23.564 0 42.667-19.103 42.667-42.667s-19.103-42.667-42.667-42.667v0h-512c-23.564 0-42.667 19.103-42.667 42.667s19.103 42.667 42.667 42.667v0zM512 469.334h256c23.564 0 42.667-19.103 42.667-42.667s-19.103-42.667-42.667-42.667v0h-256c-23.564 0-42.667 19.103-42.667 42.667s19.103 42.667 42.667 42.667v0zM237.227 463.232l87.765 52.651c6.271 3.827 13.857 6.093 21.973 6.093 23.561 0 42.662-19.098 42.667-42.658v0-105.301c-0.005-23.561-19.105-42.659-42.667-42.659-8.116 0-15.703 2.266-22.162 6.2l0.188-0.107-87.723 52.651c-12.476 7.596-20.68 21.123-20.68 36.565s8.204 28.969 20.492 36.459l0.188 0.107z" />
</font>
</defs>
</svg>
